<svg id="Capa_1" enable-background="new 0 0 512 512" height="512" viewBox="0 0 512 512" width="512" xmlns="http://www.w3.org/2000/svg"><g><path d="m258.572 276.146h54.856v139.709h-54.856z" transform="matrix(.707 -.707 .707 .707 -160.892 303.574)"/><path d="m294.789 436-98.789-98.789-38.789 38.789 98.789 99.789z"/><path d="m336.146 258.572h139.709v54.856h-139.709z" transform="matrix(.707 -.707 .707 .707 -83.318 370.853)"/><path d="m512 292.211-15-15-39.789 38.789 54.789 53.789z"/><path d="m96.146 258.572h139.709v54.856h-139.709z" transform="matrix(.707 -.707 .707 .707 -153.612 201.147)"/><path d="m457.211 76 54.789 53.789v-108.578z"/><path d="m36.146 198.572h139.709v54.856h-139.709z" transform="matrix(.707 -.707 .707 .707 -128.759 141.147)"/><path d="m276.146 198.572h139.709v54.856h-139.709z" transform="matrix(.707 -.707 .707 .707 -58.465 310.853)"/><path d="m337.211 76 38.789 38.789 114.789-114.789h-78.578z"/><path d="m512 172.211-76-75-38.789 38.789 114.789 113.789z"/><path d="m217.211 76 98.789 98.789 38.789-38.789-98.789-99.789z"/><path d="m198.572 96.146h54.856v139.709h-54.856z" transform="matrix(.707 -.707 .707 .707 -51.186 208.426)"/><path d="m414.789 436-38.789-38.789-113.789 114.789h77.578z"/><path d="m234.789 497-38.789-39.789-53.789 54.789h77.578z"/><path d="m174.789 436-38.789-38.789-114.789 114.789h78.578z"/><path d="m436 337.211-38.789 38.789 114.789 114.789v-78.578z"/><path d="m0 382.211v108.578l54.789-54.789z"/><path d="m436 457.211-53.789 54.789h108.578z"/><path d="m277.211 15 38.789 39.789 53.789-54.789h-77.578z"/><path d="m76 54.789 53.789-54.789h-108.578z"/><path d="m76 414.789 38.789-38.789-114.789-113.789v77.578z"/><path d="m97.211 76 38.789 38.789 113.789-114.789h-77.578z"/><path d="m76 174.789 38.789-38.789-114.789-114.789v78.578z"/><path d="m15 234.789 39.789-38.789-54.789-53.789v77.578z"/></g></svg>