<svg id="Flat" height="512" viewBox="0 0 512 512" width="512" xmlns="http://www.w3.org/2000/svg"><path d="m328 224h112v112h-112z" fill="#3397e8"/><path d="m384 336h112v112h-112z" fill="#ffb632"/><circle cx="384" cy="280" fill="#e9eef2" r="24"/><path d="m272 336h112v112h-112z" fill="#35a872"/><path d="m304 368h48v48h-48z" fill="#e9eef2"/><path d="m440 224h-112l56-80z" fill="#eb423f"/><path d="m464 416h-48l24-48z" fill="#e9eef2"/><path d="m56 384a40.005 40.005 0 0 1 -39.91-37.33q.18-5.625.77-10.98c8.34-76.95 76.4-111.69 159.14-111.69s150.8 34.74 159.14 111.69q.585 5.355.77 10.98a40.005 40.005 0 0 1 -39.91 37.33z" fill="#95573a"/><ellipse cx="176" cy="360" fill="#a36f58" rx="80" ry="112"/><circle cx="272" cy="72" fill="#95573a" r="48"/><circle cx="80" cy="72" fill="#95573a" r="48"/><ellipse cx="176" cy="160" fill="#ad6643" rx="120" ry="112"/><g fill="#7a4830"><path d="m176 240c-35.29 0-64-23.327-64-52a8 8 0 0 1 16 0c0 19.851 21.532 36 48 36s48-16.149 48-36a8 8 0 0 1 16 0c0 28.673-28.71 52-64 52z"/><circle cx="224" cy="144" r="8"/><circle cx="128" cy="144" r="8"/><path d="m176 232a8 8 0 0 1 -8-8v-48a8 8 0 0 1 16 0v48a8 8 0 0 1 -8 8z"/><ellipse cx="96" cy="424" rx="56" ry="64"/><ellipse cx="256" cy="424" rx="56" ry="64"/><path d="m195.359 180.438-13.578 9.688a9.853 9.853 0 0 1 -11.562 0l-13.578-9.688a11.387 11.387 0 0 1 -4.641-9.282c0-6.156 4.666-11.156 10.422-11.156h27.156c5.756 0 10.422 5 10.422 11.156a11.387 11.387 0 0 1 -4.641 9.282z"/></g></svg>