<svg id="Capa_1" enable-background="new 0 0 512 512" height="512" viewBox="0 0 512 512" width="512" xmlns="http://www.w3.org/2000/svg"><g><path d="m464.5 451.611h-208.5v-130.796h200.181c4.594 0 8.319 3.725 8.319 8.319z" fill="#78d0b1"/><path d="m456.181 320.815h-19.673c4.594 0 8.319 3.725 8.319 8.319v122.477h19.673v-122.477c0-4.594-3.724-8.319-8.319-8.319z" fill="#66b49d"/><path d="m256 451.611h-208.5v-122.477c0-4.594 3.725-8.319 8.319-8.319h200.181z" fill="#5490f9"/><path d="m237.327 320.815h18.673v130.796h-18.673z" fill="#4a81f6"/><path d="m126.451 187.152v133.663h83.823v-27.572c0-25.254 20.473-45.727 45.727-45.727 25.254 0 45.727 20.473 45.727 45.727v27.572h83.823v-133.663c0-7.144-5.791-12.935-12.935-12.935h-233.23c-7.144 0-12.935 5.791-12.935 12.935z" fill="#f1d333"/><g fill="#eab14d"><path d="m237.327 247.516c-25.254 0-45.727 20.473-45.727 45.727v27.572h18.673v-27.572c0-22.054 15.614-40.459 36.39-44.77-3.014-.625-6.136-.957-9.336-.957z"/><path d="m372.615 174.217h-18.673c7.144 0 12.935 5.791 12.935 12.935v133.663h18.673v-133.663c0-7.144-5.791-12.935-12.935-12.935z"/></g><path d="m247.882 56.599-101.812 117.618h219.861l-101.813-117.618c-4.281-4.946-11.954-4.946-16.236 0z" fill="#dd636e"/><path d="m247.882 56.599-4.194 4.845 97.618 112.772h24.625l-101.813-117.617c-4.281-4.946-11.954-4.946-16.236 0z" fill="#da4a54"/><g><path d="m504.5 459.111h-497c-4.143 0-7.5-3.357-7.5-7.5s3.357-7.5 7.5-7.5h497c4.143 0 7.5 3.357 7.5 7.5s-3.357 7.5-7.5 7.5z" fill="#544f57"/></g></g></svg>