<svg height="469pt" viewBox="0 0 469.334 469" width="469pt" xmlns="http://www.w3.org/2000/svg"><path d="m234.667969 21.5-234.667969 128v192l234.667969 128 234.667969-128v-192zm0 0" fill="#fad47f"/><g fill="#e59e0e"><path d="m192 160.167969c0-17.675781-33.429688-32-74.667969-32-41.234375 0-74.664062 14.324219-74.664062 32 0 17.671875 33.429687 32 74.664062 32 41.238281 0 74.667969-14.328125 74.667969-32zm0 0"/><path d="m341.332031 224.167969c0-17.675781-33.429687-32-74.664062-32-41.238281 0-74.667969 14.324219-74.667969 32 0 17.671875 33.429688 32 74.667969 32 41.234375 0 74.664062-14.328125 74.664062-32zm0 0"/><path d="m320 96.167969c0-17.675781-33.429688-32-74.667969-32-41.234375 0-74.664062 14.324219-74.664062 32 0 17.671875 33.429687 32 74.664062 32 41.238281 0 74.667969-14.328125 74.667969-32zm0 0"/><path d="m469.332031 160.167969c0-17.675781-33.429687-32-74.664062-32-41.238281 0-74.667969 14.324219-74.667969 32 0 17.671875 33.429688 32 74.667969 32 41.234375 0 74.664062-14.328125 74.664062-32zm0 0"/></g><path d="m298.667969 160.167969c0-17.675781-28.65625-32-64-32-35.347657 0-64 14.324219-64 32v42.664062c0 17.675781 28.652343 32 64 32 35.34375 0 64-14.324219 64-32zm0 0" fill="#ebad1e"/><path d="m192 226.527344v-90.054688c-13.003906 5.855469-21.332031 14.253906-21.332031 23.695313v42.664062c0 9.441407 8.328125 17.839844 21.332031 23.695313zm0 0" fill="#f9c450"/><path d="m298.667969 160.167969c0-17.675781-28.65625-32-64-32-35.347657 0-64 14.324219-64 32 0 17.671875 28.652343 32 64 32 35.34375 0 64-14.328125 64-32zm0 0" fill="#fde7b8"/><path d="m170.667969 96.167969c0-17.675781-28.65625-32-64-32-35.347657 0-64 14.324219-64 32v42.664062c0 17.675781 28.652343 32 64 32 35.34375 0 64-14.324219 64-32zm0 0" fill="#ebad1e"/><path d="m64 162.527344v-90.054688c-13.003906 5.855469-21.332031 14.253906-21.332031 23.695313v42.664062c0 9.441407 8.328125 17.839844 21.332031 23.695313zm0 0" fill="#f9c450"/><path d="m426.667969 96.167969c0-17.675781-28.65625-32-64-32-35.347657 0-64 14.324219-64 32v42.664062c0 17.675781 28.652343 32 64 32 35.34375 0 64-14.324219 64-32zm0 0" fill="#ebad1e"/><path d="m298.667969 32.167969c0-17.675781-28.65625-32-64-32-35.347657 0-64 14.324219-64 32v42.664062c0 17.675781 28.652343 32 64 32 35.34375 0 64-14.324219 64-32zm0 0" fill="#ebad1e"/><path d="m192 98.527344v-90.054688c-13.003906 5.855469-21.332031 14.253906-21.332031 23.695313v42.664062c0 9.441407 8.328125 17.839844 21.332031 23.695313zm0 0" fill="#f9c450"/><path d="m320 162.527344v-90.054688c-13.003906 5.855469-21.332031 14.253906-21.332031 23.695313v42.664062c0 9.441407 8.328125 17.839844 21.332031 23.695313zm0 0" fill="#f9c450"/><path d="m170.667969 96.167969c0-17.675781-28.65625-32-64-32-35.347657 0-64 14.324219-64 32 0 17.671875 28.652343 32 64 32 35.34375 0 64-14.328125 64-32zm0 0" fill="#fde7b8"/><path d="m426.667969 96.167969c0-17.675781-28.65625-32-64-32-35.347657 0-64 14.324219-64 32 0 17.671875 28.652343 32 64 32 35.34375 0 64-14.328125 64-32zm0 0" fill="#fde7b8"/><path d="m298.667969 32.167969c0-17.675781-28.65625-32-64-32-35.347657 0-64 14.324219-64 32 0 17.671875 28.652343 32 64 32 35.34375 0 64-14.328125 64-32zm0 0" fill="#fde7b8"/><path d="m0 149.5 234.667969 128v192l-234.667969-128zm0 0" fill="#f9c450"/><path d="m469.335938 149.5-234.667969 128v192l234.667969-128zm0 0" fill="#e59e0e"/></svg>