<?xml version="1.0" encoding="iso-8859-1"?>
<!-- Generator: Adobe Illustrator 19.0.0, SVG Export Plug-In . SVG Version: 6.00 Build 0)  -->
<svg version="1.1" id="Capa_1" xmlns="http://www.w3.org/2000/svg" xmlns:xlink="http://www.w3.org/1999/xlink" x="0px" y="0px"
	 viewBox="0 0 436.912 436.912" style="enable-background:new 0 0 436.912 436.912;" xml:space="preserve">
<path style="fill:#2A8EE6;" d="M116.056,204.805v-23.241c0-2.237,1.55-4.065,3.441-4.065h40.905c1.893,0,3.441,1.871,3.441,4.065
	v23.241"/>
<path d="M163.842,211.632c-3.77,0-6.827-3.057-6.827-6.827v-20.48h-34.133v20.48c0,3.77-3.057,6.827-6.827,6.827
	c-3.77,0-6.827-3.057-6.827-6.827v-23.241c0-6.006,4.606-10.892,10.267-10.892h40.905c5.661,0,10.267,4.886,10.267,10.892v23.241
	C170.669,208.575,167.612,211.632,163.842,211.632z"/>
<path style="fill:#2A8EE6;" d="M40.962,204.805v-23.241c0-2.237,1.548-4.065,3.442-4.065H85.31c1.891,0,3.441,1.871,3.441,4.065
	v23.241"/>
<path d="M88.749,211.632c-3.77,0-6.827-3.057-6.827-6.827v-20.48H47.789v20.48c0,3.77-3.057,6.827-6.827,6.827
	s-6.827-3.057-6.827-6.827v-23.241c0-6.006,4.606-10.892,10.269-10.892H85.31c5.661,0,10.267,4.886,10.267,10.892v23.241
	C95.576,208.575,92.519,211.632,88.749,211.632z"/>
<path style="fill:#2A8EE6;" d="M197.975,204.805v-23.241c0-2.237,1.55-4.065,3.441-4.065h40.907c1.891,0,3.441,1.871,3.441,4.065
	v23.241"/>
<path d="M245.762,211.632c-3.77,0-6.827-3.057-6.827-6.827v-20.48h-34.133v20.48c0,3.77-3.057,6.827-6.827,6.827
	c-3.77,0-6.827-3.057-6.827-6.827v-23.241c0-6.006,4.606-10.892,10.267-10.892h40.907c5.661,0,10.267,4.886,10.267,10.892v23.241
	C252.589,208.575,249.532,211.632,245.762,211.632z"/>
<path style="fill:#FBAD4A;" d="M354.989,327.685v-23.241c0-2.239,1.55-4.065,3.442-4.065h40.904c1.893,0,3.442,1.869,3.442,4.065
	v23.241"/>
<path d="M402.775,334.512c-3.77,0-6.827-3.057-6.827-6.827v-20.48h-34.133v20.48c0,3.77-3.057,6.827-6.827,6.827
	s-6.827-3.057-6.827-6.827v-23.241c0-6.006,4.606-10.892,10.269-10.892h40.904c5.661,0,10.269,4.886,10.269,10.892v23.241
	C409.602,331.455,406.546,334.512,402.775,334.512z"/>
<path style="fill:#FEDA4F;" d="M170.048,327.685h253.829c3.417,0,6.205,2.799,6.205,6.246v89.907c0,3.437-2.789,6.246-6.205,6.246
	H170.048c-3.417,0-6.205-2.809-6.205-6.246v-89.907C163.842,330.486,166.631,327.685,170.048,327.685L170.048,327.685z"/>
<path d="M423.877,436.912H170.046c-7.185,0-13.032-5.866-13.032-13.073v-89.907c0-7.209,5.845-13.073,13.032-13.073h253.831
	c7.185,0,13.032,5.866,13.032,13.073v89.907C436.909,431.048,431.062,436.912,423.877,436.912z M170.669,423.258h252.587v-88.747
	H170.669L170.669,423.258L170.669,423.258z M423.877,334.512h0.068H423.877z"/>
<path style="fill:#2BBBE9;" d="M13.034,204.805h253.831c3.415,0,6.204,2.801,6.204,6.248v89.905c0,3.437-2.789,6.246-6.204,6.246
	H13.034c-3.417,0-6.205-2.809-6.205-6.246v-89.905C6.829,207.606,9.618,204.805,13.034,204.805L13.034,204.805z"/>
<path d="M266.863,314.032H13.033C5.847,314.032,0,308.166,0,300.959v-89.905c0-7.209,5.845-13.075,13.032-13.075h253.831
	c7.185,0,13.03,5.866,13.03,13.075v89.905C279.895,308.168,274.048,314.032,266.863,314.032z M13.655,300.378h252.587v-88.747
	H13.655L13.655,300.378L13.655,300.378z M266.863,211.632h0.068H266.863z"/>
<path style="fill:#FBAD4A;" d="M12.87,327.685h117.62c3.328,0,6.043,2.816,6.043,6.246v89.907c0,3.422-2.732,6.246-6.043,6.246
	H12.87c-3.309,0-6.043-2.809-6.043-6.246v-89.907C6.829,330.486,9.544,327.685,12.87,327.685L12.87,327.685z"/>
<path d="M130.492,436.912H12.872c-7.096,0-12.87-5.866-12.87-13.073v-89.907c0-7.209,5.774-13.073,12.87-13.073h117.62
	c7.096,0,12.87,5.866,12.87,13.073v89.907C143.362,431.048,137.589,436.912,130.492,436.912z M13.655,423.258h116.053v-88.747
	H13.655V423.258z M130.492,334.512h0.068H130.492z"/>
<path style="fill:#ED5481;" d="M299.509,70.04l11.235-20.118c1.08-1.939,3.354-2.69,5.047-1.683l36.659,21.869
	c1.693,1.017,2.171,3.458,1.114,5.359l-11.242,20.111"/>
<path d="M342.313,102.407c-1.128,0-2.27-0.28-3.325-0.869c-3.29-1.84-4.468-5.999-2.628-9.289l9.972-17.84l-31.089-18.546
	l-9.776,17.505c-1.838,3.292-5.999,4.47-9.288,2.632c-3.292-1.838-4.47-5.997-2.632-9.288l11.235-20.12
	c1.444-2.594,3.881-4.516,6.683-5.27c2.683-0.724,5.458-0.352,7.811,1.048l36.668,21.874c4.83,2.901,6.429,9.417,3.584,14.537
	l-11.25,20.127C347.029,101.146,344.708,102.407,342.313,102.407z"/>
<path style="fill:#ED5481;" d="M231.24,29.073l11.242-20.11c1.084-1.937,3.345-2.697,5.048-1.681l36.651,21.869
	c1.693,1.007,2.171,3.454,1.114,5.35L274.054,54.62"/>
<path d="M274.045,61.447c-1.126,0-2.27-0.28-3.323-0.869c-3.292-1.84-4.468-5.999-2.63-9.289l9.969-17.838l-31.08-18.546
	L237.2,32.403c-1.84,3.292-6.001,4.468-9.289,2.628c-3.29-1.84-4.468-5.999-2.628-9.289l11.24-20.11
	c1.456-2.603,3.898-4.524,6.699-5.275c2.679-0.72,5.449-0.341,7.803,1.06l36.654,21.871c4.835,2.876,6.444,9.399,3.579,14.537
	l-11.245,20.123C278.762,60.186,276.44,61.447,274.045,61.447z M280.682,35.014c0.003,0.002,0.005,0.003,0.009,0.005L280.682,35.014
	z"/>
<path style="fill:#ED5481;" d="M367.775,110.998l11.233-20.118c1.082-1.937,3.355-2.69,5.048-1.681l36.651,21.869
	c1.702,1.015,2.181,3.456,1.116,5.361l-11.235,20.111"/>
<path d="M410.582,143.367c-1.126,0-2.27-0.28-3.323-0.867c-3.292-1.84-4.47-5.997-2.632-9.289l9.965-17.84l-31.082-18.548
	l-9.776,17.505c-1.838,3.294-5.999,4.468-9.288,2.632c-3.292-1.838-4.47-5.997-2.632-9.288l11.235-20.118
	c1.449-2.596,3.888-4.518,6.688-5.272c2.685-0.72,5.456-0.348,7.806,1.05l36.661,21.874c4.845,2.889,6.449,9.421,3.574,14.556
	l-11.232,20.106C415.299,142.106,412.976,143.367,410.582,143.367z"/>
<path style="fill:#F87EA1;" d="M210.223,21.296l216.805,123.971c2.918,1.669,3.922,5.393,2.236,8.284l-44.029,75.534
	c-1.686,2.891-5.446,3.884-8.358,2.224L160.074,107.329c-2.918-1.667-3.93-5.395-2.237-8.276l44.03-75.54
	C203.551,20.62,207.311,19.627,210.223,21.296L210.223,21.296z"/>
<path d="M379.901,238.937c-2.179,0-4.386-0.546-6.403-1.698L156.684,113.254c-3.014-1.722-5.168-4.519-6.062-7.875
	c-0.889-3.338-0.418-6.813,1.326-9.784l44.018-75.52c3.569-6.124,11.484-8.236,17.65-4.702l216.798,123.969
	c3.007,1.719,5.156,4.507,6.052,7.852c0.894,3.338,0.43,6.818-1.307,9.798l-44.029,75.532
	C388.738,236.633,384.374,238.935,379.901,238.937z M164.141,101.791L379.684,225.05l43.276-74.243L207.412,27.552L164.141,101.791z
	 M423.639,151.194h0.068H423.639z M163.735,102.49L163.735,102.49L163.735,102.49L163.735,102.49z M206.83,27.22h0.002H206.83z"/>
<g>
</g>
<g>
</g>
<g>
</g>
<g>
</g>
<g>
</g>
<g>
</g>
<g>
</g>
<g>
</g>
<g>
</g>
<g>
</g>
<g>
</g>
<g>
</g>
<g>
</g>
<g>
</g>
<g>
</g>
</svg>
