<?xml version="1.0" encoding="utf-8"?>
<svg viewBox="0 0 511 511" style="enable-background:new 0 0 511 511;" xmlns="http://www.w3.org/2000/svg" xmlns:bx="https://boxy-svg.com">
  <g/>
  <g/>
  <g/>
  <g/>
  <g/>
  <g/>
  <g/>
  <g/>
  <g/>
  <g/>
  <g/>
  <g/>
  <g/>
  <g/>
  <g/>
  <path d="M 154.5 149.5 m -19.27 0 a 19.27 19.27 0 1 0 38.54 0 a 19.27 19.27 0 1 0 -38.54 0 Z M 154.5 149.5 m -11.562 0 a 11.562 11.562 0 0 1 23.124 0 a 11.562 11.562 0 0 1 -23.124 0 Z" style="" transform="matrix(-0.305428, 0.952215, -0.952215, -0.305428, 557.215454, 113.845764)" bx:shape="ring 154.5 149.5 11.562 11.562 19.27 19.27 1@9b5d165f"/>
  <path d="M 154.5 149.5 m -19.27 0 a 19.27 19.27 0 1 0 38.54 0 a 19.27 19.27 0 1 0 -38.54 0 Z M 154.5 149.5 m -11.562 0 a 11.562 11.562 0 0 1 23.124 0 a 11.562 11.562 0 0 1 -23.124 0 Z" style="" transform="matrix(-0.305428, 0.952215, -0.952215, -0.305428, 314.534119, 268.949005)" bx:shape="ring 154.5 149.5 11.562 11.562 19.27 19.27 1@9b5d165f"/>
  <path d="M 154.5 149.5 m -19.27 0 a 19.27 19.27 0 1 0 38.54 0 a 19.27 19.27 0 1 0 -38.54 0 Z M 154.5 149.5 m -11.562 0 a 11.562 11.562 0 0 1 23.124 0 a 11.562 11.562 0 0 1 -23.124 0 Z" style="" transform="matrix(-0.305428, 0.952215, -0.952215, -0.305428, 458.209656, 30.06691)" bx:shape="ring 154.5 149.5 11.562 11.562 19.27 19.27 1@9b5d165f"/>
  <path d="M 154.5 149.5 m -19.27 0 a 19.27 19.27 0 1 0 38.54 0 a 19.27 19.27 0 1 0 -38.54 0 Z M 154.5 149.5 m -11.562 0 a 11.562 11.562 0 0 1 23.124 0 a 11.562 11.562 0 0 1 -23.124 0 Z" style="" transform="matrix(-0.305428, 0.952215, -0.952215, -0.305428, 333.229248, 79.574394)" bx:shape="ring 154.5 149.5 11.562 11.562 19.27 19.27 1@9b5d165f"/>
  <path d="M 154.5 149.5 m -19.27 0 a 19.27 19.27 0 1 0 38.54 0 a 19.27 19.27 0 1 0 -38.54 0 Z M 154.5 149.5 m -11.562 0 a 11.562 11.562 0 0 1 23.124 0 a 11.562 11.562 0 0 1 -23.124 0 Z" style="" transform="matrix(-0.305428, 0.952215, -0.952215, -0.305428, 387.92981, 186.552017)" bx:shape="ring 154.5 149.5 11.562 11.562 19.27 19.27 1@9b5d165f"/>
  <path d="M 154.5 149.5 m -19.27 0 a 19.27 19.27 0 1 0 38.54 0 a 19.27 19.27 0 1 0 -38.54 0 Z M 154.5 149.5 m -11.562 0 a 11.562 11.562 0 0 1 23.124 0 a 11.562 11.562 0 0 1 -23.124 0 Z" style="" transform="matrix(-0.305428, 0.952215, -0.952215, -0.305428, 593.229858, 263.063568)" bx:shape="ring 154.5 149.5 11.562 11.562 19.27 19.27 1@9b5d165f"/>
  <path d="M 154.5 149.5 m -19.27 0 a 19.27 19.27 0 1 0 38.54 0 a 19.27 19.27 0 1 0 -38.54 0 Z M 154.5 149.5 m -11.562 0 a 11.562 11.562 0 0 1 23.124 0 a 11.562 11.562 0 0 1 -23.124 0 Z" style="" transform="matrix(-0.305428, 0.952215, -0.952215, -0.305428, 480.36673, 328.49646)" bx:shape="ring 154.5 149.5 11.562 11.562 19.27 19.27 1@9b5d165f"/>
  <path d="M 154.5 149.5 m -19.27 0 a 19.27 19.27 0 1 0 38.54 0 a 19.27 19.27 0 1 0 -38.54 0 Z M 154.5 149.5 m -11.562 0 a 11.562 11.562 0 0 1 23.124 0 a 11.562 11.562 0 0 1 -23.124 0 Z" style="" transform="matrix(-0.305428, 0.952215, -0.952215, -0.305428, 509.101868, 195.207169)" bx:shape="ring 154.5 149.5 11.562 11.562 19.27 19.27 1@9b5d165f"/>
</svg>