<?xml version="1.0" encoding="iso-8859-1"?>
<!-- Generator: Adobe Illustrator 19.0.0, SVG Export Plug-In . SVG Version: 6.00 Build 0)  -->
<svg version="1.1" id="Layer_1" xmlns="http://www.w3.org/2000/svg" xmlns:xlink="http://www.w3.org/1999/xlink" x="0px" y="0px"
	 viewBox="0 0 512 512" style="enable-background:new 0 0 512 512;" xml:space="preserve">
<path style="fill:#916D42;" d="M110.07,335.545c0,4.956-3.987,8.974-8.904,8.974H8.904c-4.917,0-8.904-4.018-8.904-8.974
	c0-4.956,3.987-8.974,8.904-8.974h92.261C106.083,326.57,110.07,330.588,110.07,335.545z"/>
<g>
	<path style="fill:#BC9A5E;" d="M512,402.852c0,4.956-3.987,8.974-8.904,8.974H390.322c-4.917,0-8.904-4.018-8.904-8.974
		c0-4.956,3.987-8.974,8.904-8.974h112.774C508.013,393.877,512,397.895,512,402.852z"/>
	<path style="fill:#BC9A5E;" d="M407.374,344.519H45.449c0-24.232,6.812-48.463,20.425-66.846l111.034-149.924
		c27.229-36.767,71.786-36.767,99.015,0L386.96,277.673C400.573,296.055,407.374,320.287,407.374,344.519L407.374,344.519z"/>
</g>
<path style="fill:#DDC98B;" d="M460.18,411.826H120.517c0-22.741,6.393-45.482,19.169-62.734L243.89,208.389
	c25.554-34.505,67.37-34.505,92.925,0l104.206,140.702C453.798,366.344,460.18,389.085,460.18,411.826L460.18,411.826z"/>
<path style="fill:#BC9A5E;" d="M278.481,281.599c0,4.956-3.987,8.974-8.904,8.974h-1.736c-4.917,0-8.904-4.018-8.904-8.974
	s3.987-8.974,8.904-8.974h1.736C274.494,272.624,278.481,276.642,278.481,281.599z M312.856,272.624h-1.729
	c-4.917,0-8.904,4.018-8.904,8.974c0,4.956,3.987,8.974,8.904,8.974h1.729c4.917,0,8.904-4.018,8.904-8.974
	C321.761,276.642,317.774,272.624,312.856,272.624z M291.219,218.976h-1.731c-4.917,0-8.904,4.018-8.904,8.974
	c0,4.956,3.987,8.974,8.904,8.974h1.731c4.917,0,8.904-4.018,8.904-8.974C300.123,222.993,296.137,218.976,291.219,218.976z"/>
<path style="fill:#916D42;" d="M199.037,195.92c0,4.956-3.987,8.974-8.904,8.974h-1.731c-4.917,0-8.904-4.018-8.904-8.974
	c0-4.956,3.987-8.974,8.904-8.974h1.731C195.05,186.946,199.037,190.964,199.037,195.92z M228.709,133.295h-1.736
	c-4.917,0-8.904,4.018-8.904,8.974c0,4.956,3.987,8.974,8.904,8.974h1.736c4.917,0,8.904-4.018,8.904-8.974
	S233.627,133.295,228.709,133.295z"/>
<g>
</g>
<g>
</g>
<g>
</g>
<g>
</g>
<g>
</g>
<g>
</g>
<g>
</g>
<g>
</g>
<g>
</g>
<g>
</g>
<g>
</g>
<g>
</g>
<g>
</g>
<g>
</g>
<g>
</g>
</svg>
