<?xml version="1.0" encoding="UTF-8" standalone="no"?>
<!-- Drawn by Useddenim -->
<svg id="svg3815" xmlns:rdf="http://www.w3.org/1999/02/22-rdf-syntax-ns#" xmlns="http://www.w3.org/2000/svg" preserveAspectRatio="xMinYMin meet" viewBox="0 0 500 315" height="100%" width="100%" version="1.1" xmlns:cc="http://creativecommons.org/ns#" xmlns:dc="http://purl.org/dc/elements/1.1/">
 <metadata id="metadata3843">
  <rdf:RDF>
   <cc:Work rdf:about="">
    <dc:format>image/svg+xml</dc:format>
    <dc:type rdf:resource="http://purl.org/dc/dcmitype/StillImage"/>
    <dc:title>BICYCLE</dc:title>
   </cc:Work>
  </rdf:RDF>
 </metadata>
 <title id="title3817">BICYCLE</title>
 <g id="g3819" transform="translate(0,-92.5)" stroke="#000" stroke-width="30" fill="none">
  <path id="path3821" d="m95,312.5,65-205h57.5"/>
  <path id="path3823" d="M272.5,150h87.5"/>
  <path id="path3825" d="m140,172.5h185l80,140h-132.5l-140-102.5"/>
  <path id="path3827" d="m325,172.5-52.5,140v47.5h32.5"/>
  <circle id="circle3829" d="m 175,312.5 c 0,44.18278 -35.81722,80 -80,80 -44.18278,0 -80,-35.81722 -80,-80 0,-44.18278 35.81722,-80 80,-80 44.18278,0 80,35.81722 80,80 z" cx="95" cy="312.5" r="80"/>
  <circle id="circle3831" d="m 485,312.5 c 0,44.18278 -35.81722,80 -80,80 -44.18278,0 -80,-35.81722 -80,-80 0,-44.18278 35.81722,-80 80,-80 44.18278,0 80,35.81722 80,80 z" cx="405" cy="312.5" r="80"/>
  <circle id="circle3833" d="m 102.5,312.5 c 0,4.14214 -3.357864,7.5 -7.5,7.5 -4.142136,0 -7.5,-3.35786 -7.5,-7.5 0,-4.14214 3.357864,-7.5 7.5,-7.5 4.142136,0 7.5,3.35786 7.5,7.5 z" cx="95" cy="312.5" r="7.5"/>
  <circle id="circle3835" d="m 412.5,312.5 c 0,4.14214 -3.35786,7.5 -7.5,7.5 -4.14214,0 -7.5,-3.35786 -7.5,-7.5 0,-4.14214 3.35786,-7.5 7.5,-7.5 4.14214,0 7.5,3.35786 7.5,7.5 z" cx="405" cy="312.5" r="7.5"/>
  <circle id="circle3837" d="m 287.5,312.5 c 0,8.28427 -6.71573,15 -15,15 -8.28427,0 -15,-6.71573 -15,-15 0,-8.28427 6.71573,-15 15,-15 8.28427,0 15,6.71573 15,15 z" cx="272.5" cy="312.5" r="15"/>
 </g>
</svg>
