<?xml version="1.0" encoding="UTF-8" standalone="no"?>
<!-- Created with Inkscape (http://www.inkscape.org/) -->
<svg id="svg2307" xmlns:rdf="http://www.w3.org/1999/02/22-rdf-syntax-ns#" xmlns="http://www.w3.org/2000/svg" viewBox="0 0 300 250" height="100%" width="100%" version="1.0" preserveAspectRatio="xMinYMin meet" xmlns:cc="http://creativecommons.org/ns#" xmlns:dc="http://purl.org/dc/elements/1.1/">
 <title id="title3873">CAR</title>
 <metadata id="metadata2312">
  <rdf:RDF>
   <cc:Work rdf:about="">
    <dc:format>image/svg+xml</dc:format>
    <dc:type rdf:resource="http://purl.org/dc/dcmitype/StillImage"/>
    <dc:title>CAR</dc:title>
   </cc:Work>
  </rdf:RDF>
 </metadata>
 <path id="path9347" d="M85.408,0.033295c-13.448-0.47968-25.037,3.9075-32.185,19.664l-25.804,65.139c-18.802,5.226-26.987,18.994-27.42,30.294v85.288h24.795v28.702c-1.2015,27.354,43.265,28.412,44.259-0.28499l0.52497-28.173h160.84l0.52497,28.173c0.99439,28.696,45.5,27.639,44.299,0.28499v-28.702h24.759v-85.292c-0.4287-11.296-8.6187-25.064-27.419-30.29l-25.81-65.139c-7.14-15.756-18.73-20.144-32.18-19.664h-129.19zm2.948,22.595c1.1249-0.0059,2.3107,0.0322,3.5132,0.08139l116.66,0.36641c10.678-0.25115,15.206,0.000326,19.747,10.178l18.58,50.484-193.51-0.244,18.374-49.14c2.8652-9.8367,8.7634-11.682,16.638-11.725v0.00003zm-40.625,86.392c11.565,0.00002,20.959,9.4294,20.959,21.089s-9.3933,21.13-20.959,21.13c-11.565,0-20.959-9.4701-20.959-21.13s9.3933-21.089,20.959-21.089zm205.71,0c11.565-0.00002,20.919,9.4294,20.919,21.089s-9.353,21.13-20.919,21.13c-11.565,0.00001-20.959-9.4701-20.959-21.13s9.3933-21.089,20.959-21.089zm-14.395-27.776z" fill-rule="evenodd" fill="#000"/>
</svg>
