<?xml version="1.0" encoding="UTF-8" standalone="no"?>
<!-- Created with Inkscape (http://www.inkscape.org/) -->
<svg id="svg2" xmlns:rdf="http://www.w3.org/1999/02/22-rdf-syntax-ns#" xmlns="http://www.w3.org/2000/svg" preserveAspectRatio="xMinYMin meet" viewBox="0 0 281.37 298.14" version="1.0" xmlns:cc="http://creativecommons.org/ns#" xmlns:xlink="http://www.w3.org/1999/xlink" xmlns:dc="http://purl.org/dc/elements/1.1/">
 <title id="title3353">CAT</title>
 <metadata id="metadata11">
  <rdf:RDF>
   <cc:Work rdf:about="">
    <dc:format>image/svg+xml</dc:format>
    <dc:type rdf:resource="http://purl.org/dc/dcmitype/StillImage"/>
    <dc:title>CAT</dc:title>
   </cc:Work>
  </rdf:RDF>
 </metadata>
 <defs id="defs4"></defs>
 <path id="path1364" stroke-linejoin="miter" d="m281.01,50.475z" fill-rule="evenodd" fill-opacity="0.75" stroke="#000" stroke-linecap="butt" stroke-width="0.50085509px" fill="#000"/>
 <path id="path2435" stroke-linejoin="miter" d="m219.14,126.29z" fill-rule="evenodd" fill-opacity="0.75" stroke="#000" stroke-linecap="butt" stroke-width="0.50085509px" fill="#000"/>
 <path id="path2541" stroke-linejoin="miter" d="m183.93,207.59z" fill-rule="evenodd" fill-opacity="0.75" stroke="#000" stroke-linecap="butt" stroke-width="0.50085509px" fill="#000"/>
 <path id="path1891" fill-rule="evenodd" fill="#000" d="m95.426,250.26,97.563,0c0-13.869-0.99025-16.62-23.959-16.62,3.6694-11.008,18.585-37.641,26.873-37.641,7.3328,0,16.081,0.40392,16.081,17.135,0,18.995,31.965,49.62,39.716,37.126,11.551-18.62-19.858-12.942-19.858-57.847,0-61.433,35.852-52.687,35.852-87.202,0-17.268-4.7703-19.6-4.7703-31.945,0-16.316,14.374-15.369,11.577-28.897-1.9318-9.3447-3.4436-16.839-4.5698-28.139-0.79913-8.018-1.0539-16.564-9.3821-16.22-9.7852,0.40373-13.497,17.628-28.707,18.863-15.179,1.2324-28.121-12.922-33.996-10.9-5.8252,2.0046-3.9932,17.807-0.53962,29.032,5.428,17.641,17.268,40.579-4.317,44.033-21.585,3.4536-58.711,6.9071-85.476,42.306-26.751,35.39-25.763,76.94-36.249,89.79-35.19,43.12-71.251,25.42-71.251,61.3,0,16.064,27.218,27.629,31.535,22.448,4.3169-5.1803-36.681-20.617,9.192-38.853,39.191-15.579,42.689-18.76,54.699-7.7705z"/>
</svg>
