<?xml version="1.0" encoding="UTF-8" standalone="no"?>
<svg id="svg1" xmlns:cc="http://creativecommons.org/ns#" xml:space="preserve" height="101.1" xmlns:dc="http://purl.org/dc/elements/1.1/" preserveAspectRatio="xMinYMin meet" viewBox="0.023 -0.342 117.30106 101.10387" width="117.3" version="1.1" xmlns:xlink="http://www.w3.org/1999/xlink" overflow="visible" xmlns:rdf="http://www.w3.org/1999/02/22-rdf-syntax-ns#" xmlns="http://www.w3.org/2000/svg" enable-background="new 0.023 -0.342 119 123"><title id="title7941">COMPUTER</title><defs id="defs168">
  <linearGradient id="linearGradient1943-576" y2="53.457" gradientUnits="userSpaceOnUse" y1="20.174" gradientTransform="matrix(1.718143,0,0,0.582024,0.89767756,3.5844804)" x2="56.111" x1="47.611"><stop id="stop7384" stop-color="#FFF" offset="0"/><stop id="stop7386" stop-color="#FFF" offset="1"/></linearGradient>
  <radialGradient id="radialGradient2034-872" cx="96.709" gradientUnits="userSpaceOnUse" cy="85.741" r="8.3396"><stop id="stop7432" stop-color="#FFF" offset="0.0337"/><stop id="stop7434" stop-color="#FFF" offset="1"/></radialGradient>
  <linearGradient id="linearGradient4114-160" y2="123.65" gradientUnits="userSpaceOnUse" y1="102.88" gradientTransform="matrix(0.739691,0,0,0.739691,-0.59834044,11.28518)" x2="59.463" x1="59.463"><stop id="stop7450" stop-color="#FFF" offset="0"/><stop id="stop7452" stop-color="#CFCFCF" offset="1"/></linearGradient>
			<linearGradient id="linearGradient4111-694" y2="120.73" gradientUnits="userSpaceOnUse" y1="89.282" gradientTransform="matrix(0.739691,0,0,0.739691,-0.59834044,11.28518)" x2="73.438" x1="44.869"><stop id="stop7456" stop-color="#FFF" offset="0.0337"/><stop id="stop7458" stop-color="#FFF" offset="1"/></linearGradient>
  <linearGradient id="linearGradient4163-247" y2="56.389" gradientUnits="userSpaceOnUse" y1="-25.028" gradientTransform="matrix(0.739691,0,0,0.739691,-0.59834044,11.28518)" x2="1.6362" x1="1.6362"><stop id="stop7498" stop-color="#FFF" offset="0"/><stop id="stop7500" stop-color="#FFF" stop-opacity="0.0000000" offset="1"/></linearGradient>
  <linearGradient id="linearGradient7929" y2="60.86" gradientUnits="userSpaceOnUse" x2="117.92" gradientTransform="translate(-0.59834044,-11.33308)" y1="60.86" x1="75.498"><stop id="stop7324" stop-color="#FFF" offset="0"/><stop id="stop7326" stop-color="#000" offset="1"/></linearGradient><linearGradient id="linearGradient7931" y2="53.457" gradientUnits="userSpaceOnUse" x2="56.111" gradientTransform="matrix(1.718143,0,0,0.582024,0.89767756,-7.7703316)" y1="20.174" x1="47.611"><stop id="stop7372" stop-color="#FFF" offset="0"/><stop id="stop7374" stop-color="#FFF" offset="1"/></linearGradient><linearGradient id="linearGradient7933" y2="53.457" gradientUnits="userSpaceOnUse" x2="56.111" gradientTransform="matrix(1.718143,0,0,0.582024,0.89767756,14.90205)" y1="20.174" x1="47.611"><stop id="stop7402" stop-color="#FFF" offset="0"/><stop id="stop7404" stop-color="#FFF" offset="1"/></linearGradient><linearGradient id="linearGradient7935" y2="89.385" gradientUnits="userSpaceOnUse" x2="58.566" gradientTransform="matrix(0.739691,0,0,0.739691,-0.59834044,11.28518)" y1="104.07" x1="58.566"><stop id="stop7468" stop-color="#FFF" offset="0"/><stop id="stop7470" stop-color="#FFF" offset="1"/></linearGradient><linearGradient id="linearGradient7937" y2="105.84" gradientUnits="userSpaceOnUse" x2="119.84" gradientTransform="matrix(0.739691,0,0,0.739691,-0.59834044,11.28518)" y1="29.41" x1="43.418"><stop id="stop7492" stop-color="#FFF" offset="0.0337"/><stop id="stop7494" stop-color="#FFF" offset="1"/></linearGradient><radialGradient id="radialGradient7939" gradientUnits="userSpaceOnUse" cy="95.49" cx="-13.746" gradientTransform="matrix(0.76839101,0,0,0.739691,51.373977,11.28518)" r="61.608"><stop id="stop7510" stop-color="#FFF" offset="0"/><stop id="stop7512" stop-color="#000" offset="1"/></radialGradient></defs>
<metadata id="metadata167">
  <rdf:RDF>
    <cc:Work rdf:about="">
      <dc:format>image/svg+xml</dc:format>
      <dc:type rdf:resource="http://purl.org/dc/dcmitype/StillImage"/>
    <dc:title>COMPUTER</dc:title></cc:Work>
  </rdf:RDF>
</metadata>
<rect id="rect1905" stroke-linejoin="round" stroke-dasharray="none" stroke-dashoffset="0" rx="4.3187" ry="4.3187" height="98.975" width="41.66" stroke="#000" stroke-linecap="round" stroke-miterlimit="4" y="0.039999" x="75.282" stroke-width="0.764" fill="url(#linearGradient7929)"/>
<rect id="rect1930" stroke-linejoin="round" stroke-dashoffset="0" rx="3" ry="3" height="11.318" width="35.118" stroke="#000" stroke-linecap="round" stroke-miterlimit="4" y="4.6367" x="78.538" stroke-width="0.875" fill="url(#linearGradient7931)"/>
<rect id="rect1942" stroke-linejoin="round" stroke-dashoffset="0" rx="3" ry="3" height="11.318" width="35.118" stroke="#000" stroke-linecap="round" stroke-miterlimit="4" y="15.992" x="78.538" stroke-width="0.875" fill="url(#linearGradient1943-576)"/>
<rect id="rect1945" stroke-linejoin="round" stroke-dashoffset="0" rx="3" ry="3" height="11.318" width="35.118" stroke="#000" stroke-linecap="round" stroke-miterlimit="4" y="27.309" x="78.538" stroke-width="0.875" fill="url(#linearGradient7933)"/>
<path id="path2004" stroke-linejoin="round" d="m102.21,80.783a5.3125,5.3125,0,1,1,-10.625,0,5.3125,5.3125,0,1,1,10.625,0z" transform="matrix(0.930555,0,0,0.930555,5.9744436,2.3237304)" stroke-dashoffset="0" stroke="#000" stroke-linecap="round" stroke-miterlimit="4" stroke-dasharray="none" stroke-width="0.80597061" fill="url(#radialGradient2034-872)"/>
<path id="path5" fill="none" d="m23.28,86.524c3.0423,0.42976,6.513-2.1222,8.1721-5.8251-0.18714-2.8619-1.7612-5.0395-4.2762-5.3923-2.8064-0.39278-5.9545,1.5992-7.891,4.7015-0.341,3.3811,1.2198,6.1261,3.9951,6.5159z"/><path id="path31" d="m72.451,89.752c0,5.8066-13.012,10.51-29.064,10.51s-29.065-4.7037-29.065-10.51c0-5.8051,13.013-10.51,29.065-10.51s29.064,4.7044,29.064,10.51z" stroke="#000" stroke-width="1" fill="url(#linearGradient4114-160)"/><path id="path40" opacity="0.5" d="m60.391,88.479c0,2.1547-7.9095,3.9041-17.668,3.9041-9.7595,0-17.671-1.7494-17.671-3.9041,0-2.1584,7.9117-3.9048,17.671-3.9048,9.7587,0,17.668,1.7464,17.668,3.9048z" fill="url(#linearGradient4111-694)"/><path id="path58" d="m59.172,77.894c0,6.2393-7.3658,11.299-16.449,11.299-9.0864,0-16.45-5.0602-16.45-11.299,0-6.2415,7.3644-11.302,16.45-11.302,9.0834,0,16.449,5.0595,16.449,11.302z" stroke="#000" stroke-width="1" fill="url(#linearGradient7935)"/><path id="path96" d="m85.552,69.889c0,3.8397-3.2347,6.9516-7.2223,6.9516h-69.905c-3.9892,0-7.2231-3.1119-7.2231-6.9516v-49.982c0-3.839,3.2347-6.9524,7.2231-6.9524h69.905c3.9877,0,7.2223,3.1134,7.2223,6.9524v49.982z" stroke="#000" stroke-width="1" fill="url(#linearGradient7937)"/><path id="path105" fill="url(#linearGradient4163-247)" d="m0.023,55.096c0,2.7043,0.35431,5.3265,1.0149,7.8289,0.051778,0.0089,0.11021,0.01775,0.16347,0.02885v-30.248c-0.76121,2.672-1.1784,19.477-1.1784,22.39z"/><path id="path129" fill="url(#radialGradient7939)" d="m78.575,69.699-70.575,0,0-49.592,70.575,0,0,49.592z"/>
</svg>
