<?xml version="1.0" encoding="UTF-8" standalone="no"?>
<svg id="svg2996" xmlns:rdf="http://www.w3.org/1999/02/22-rdf-syntax-ns#" xmlns="http://www.w3.org/2000/svg" preserveAspectRatio="xMinYMin meet" height="1125.2" width="835.11" version="1.1" y="0px" x="0px" xmlns:cc="http://creativecommons.org/ns#" xmlns:dc="http://purl.org/dc/elements/1.1/" viewBox="0 0 835.11108 1125.24">
 <title id="title3017">HAND</title>
 <metadata id="metadata3005">
  <rdf:RDF>
   <cc:Work rdf:about="">
    <dc:format>image/svg+xml</dc:format>
    <dc:type rdf:resource="http://purl.org/dc/dcmitype/StillImage"/>
    <dc:title>HAND</dc:title>
   </cc:Work>
  </rdf:RDF>
 </metadata>
 <g id="Layer 1" transform="translate(-91.5,-213.26)">
  <path id="path2999" d="m339,214q11,3,18,10,8,8,22,39,14,32,38,111t37,140s13.371,59.25,14,61,2.129,2.5,4.879,2,2.121-5,2.121-5l-9-61q-9-61-28-134-18-73-22-99t0-36,16-18q12-7,27-3t25,14q11,11,23,37t27,76,30,120q16,71,19,104,4,33,21,72t35,65q19,27,35,43,17,16,24,15t15-11q9-9,36-70t43-80,33-32,34-20q18-7,35-7t25,6q8,7,7,14,0,7-14,32t-38,91q-24,67-27,82-2,16,0,26t1,41q-1,32-5,43-3,11-48,86-44,76-68,104t-23,54q1,27,18,119l17,93h-157-156l1-30q1-29-5-62-5-33-25-66-19-33-52-77-33-43-53-78-19-34-41-91-21-56-33-104-12-47-61-147-49-99-57-123t-8-36q0-11,10-22,10-10,17-11t14,2q8,3,74,113s62.871,105.75,66,110,28.621,16.75,21-22q0-17-64-174s-55.24-126-59.24-143.5-2.76-25.5-2.76-25.5q2-12,9-19,7-6,19-10,13-3,20-1,8,3,14,9,6,7,14,28,9,22,53,109t55,120s9.121,28.5,12,33,15.871,15.5,13-8q0-11-18-84-17-73-45-171s-19.242-64.5-23.242-83-2-31.5-2-31.5c8-18,9.984-21,26.242-25.5s24-3,24-3z" stroke="#000" stroke-width="1" fill="#000"/>
 </g>
</svg>
