<?xml version="1.0" encoding="UTF-8" standalone="no"?>
<svg id="svg3103" xmlns:rdf="http://www.w3.org/1999/02/22-rdf-syntax-ns#" xmlns="http://www.w3.org/2000/svg" xml:space="preserve" overflow="visible" height="106" viewBox="0 0 117.58178 106" width="117.58" version="1.1" enable-background="new 0 0 128 128" preserveAspectRatio="xMinYMin meet" xmlns:cc="http://creativecommons.org/ns#" xmlns:dc="http://purl.org/dc/elements/1.1/"><title id="title4192">HOUSE</title><metadata id="metadata3219"><rdf:RDF><cc:Work rdf:about=""><dc:format>image/svg+xml</dc:format><dc:type rdf:resource="http://purl.org/dc/dcmitype/StillImage"/><dc:title>HOUSE</dc:title></cc:Work></rdf:RDF></metadata>
	<path id="path3118" d="m100.75,103c0,1.65-1.35,3-3,3h-79c-1.65,0-3-1.35-3-3v-61.571l37.396-24.369,47.604,24.369v61.571z" fill="#000"/>
	<path id="path3135" fill="#000" d="m70.753,0c-0.553,0-1,0.48319-1,1.0786v30.2c0,0.59536,0.447,1.0786,1,1.0786h22c0.553,0,1-0.48319,1-1.0786v-30.199c0-0.59536-0.447-1.0786-1-1.0786h-22z"/>
	<path id="path3146" d="m58.753,26.723c2.333,0,43.426,24.573,49.141,27.43,5.715,2.856,9.561-1.197,9.561-4.054s1.299-6.233-4.415-9.09l-54.287-28.571-54.285,28.571c-5.715,2.857-4.317,6.033-4.317,8.89s1.602,7.967,9.461,4.254c5.778-2.729,46.808-27.43,49.141-27.43z" fill="#000"/>
	<rect id="rect3155" height="45" width="31" y="61" x="25.753" fill="#000"/>
	<rect id="rect3157" height="42.635" width="27" y="63" x="27.753" fill="#FFF"/>
	<rect id="rect3168" height="22.105" width="28" y="62.895" x="65.753" fill="url(#XMLID_14_-778)"/>
	<circle id="circle3205" transform="matrix(0.52089244,0,0,0.53130782,19.780669,35.124642)" cy="94.5" cx="58.5" r="2.5" fill="#000"/>
	<linearGradient id="XMLID_14_-778" x1="86" gradientUnits="userSpaceOnUse" x2="86" gradientTransform="matrix(1,0,0,1.0526056,-6.2471239,-14.997534)" y1="71.125" y2="95">
		<stop id="stop3281" stop-color="#FFF" offset="0"/>
		<stop id="stop3283" stop-color="#FFF" offset="0.4362"/>
		<stop id="stop3285" stop-color="#FFF" offset="1"/>
	</linearGradient>
	</svg>
