<?xml version="1.0" encoding="UTF-8" standalone="no"?>
<svg id="svg4211" xmlns:rdf="http://www.w3.org/1999/02/22-rdf-syntax-ns#" xmlns="http://www.w3.org/2000/svg" preserveAspectRatio="xMinYMin meet" viewBox="0 0 135.98 308.08" version="1.1" xmlns:cc="http://creativecommons.org/ns#" xmlns:dc="http://purl.org/dc/elements/1.1/">
 <metadata id="metadata4226">
  <rdf:RDF>
   <cc:Work rdf:about="">
    <dc:format>image/svg+xml</dc:format>
    <dc:type rdf:resource="http://purl.org/dc/dcmitype/StillImage"/>
    <dc:title>MAN</dc:title>
   </cc:Work>
  </rdf:RDF>
 </metadata>
 <title id="title4213">MAN</title>
 <path id="svg_1" fill="#000" d="m68.054,50.232c14.425,0,26.086-11.2,26.086-25.129,0-13.843-11.661-25.103-26.086-25.103-14.335,0-25.996,11.26-25.996,25.103,0.004,13.929,11.665,25.129,25.997,25.129z"/>
 <path id="svg_2" fill="#000" d="m32.861,293.97c0,7.7997,6.437,14.105,14.514,14.105,8.0461,0,14.607-6.3058,14.607-14.105v-118.2h12.236v118.2c0,7.7997,6.5613,14.105,14.607,14.105,8.0772,0,14.545-6.3058,14.545-14.105l0.0894-203.8h12.147v75.129c0,15.13,20.376,15.13,20.376,0v-76.769c0-16.684-13.453-32.989-33.677-32.989l-68.998-0.095c-18.495,0-33.312,14.545-33.312,32.61v77.238c0,14.954,20.496,14.954,20.496,0v-75.133h12.361v203.8h0.004z"/>
</svg>
