<?xml version="1.0" encoding="UTF-8" standalone="no"?>
<!-- Created with Inkscape (http://www.inkscape.org/) -->
<svg id="svg11300" xmlns:rdf="http://www.w3.org/1999/02/22-rdf-syntax-ns#" xmlns="http://www.w3.org/2000/svg" preserveAspectRatio="xMinYMin meet" viewBox="0 0 10.308 48.933" version="1.0" xmlns:cc="http://creativecommons.org/ns#" xmlns:xlink="http://www.w3.org/1999/xlink" xmlns:dc="http://purl.org/dc/elements/1.1/">
 <title id="title5126">PEN</title>
 <defs id="defs3">
  <linearGradient id="linearGradient4915-441" y2="68.225" gradientUnits="userSpaceOnUse" y1="60.446" gradientTransform="matrix(0.00491289,-0.87001016,0.87001016,0.00491289,-31.393866,55.312724)" x2="28.245" x1="28.245">
   <stop id="stop4991" stop-color="#FFF" offset="0"/>
   <stop id="stop4993" stop-color="#FFF" offset="0.31579"/>
   <stop id="stop4995" stop-color="#000" offset="1"/>
  </linearGradient>
  <linearGradient id="linearGradient4906-137" y2="62.827" gradientUnits="userSpaceOnUse" y1="62.402" gradientTransform="matrix(0.00491289,-0.87001016,0.87001016,0.00491289,-31.393866,55.312724)" x2="38.061" x1="55.876">
   <stop id="stop5015" stop-color="#FFF" offset="0"/>
   <stop id="stop5017" stop-color="#FFF" stop-opacity="0" offset="1"/>
  </linearGradient>
 </defs>
 <metadata id="metadata4">
  <rdf:RDF>
   <cc:Work rdf:about="">
    <dc:format>image/svg+xml</dc:format>
    <dc:type rdf:resource="http://purl.org/dc/dcmitype/StillImage"/>
    <dc:creator>
     <cc:Agent>
      <dc:title>Jakub Steiner</dc:title>
     </cc:Agent>
    </dc:creator>
    <dc:source>http://jimmac.musichall.cz</dc:source>
    <cc:license rdf:resource="http://creativecommons.org/licenses/by-sa/2.0/"/>
    <dc:title>PEN</dc:title>
    <dc:subject>
     <rdf:Bag>
      <rdf:li>office</rdf:li>
      <rdf:li>applications</rdf:li>
      <rdf:li>category</rdf:li>
     </rdf:Bag>
    </dc:subject>
   </cc:Work>
   <cc:License rdf:about="http://creativecommons.org/licenses/by-sa/2.0/">
    <cc:permits rdf:resource="http://web.resource.org/cc/Reproduction"/>
    <cc:permits rdf:resource="http://web.resource.org/cc/Distribution"/>
    <cc:requires rdf:resource="http://web.resource.org/cc/Notice"/>
    <cc:requires rdf:resource="http://web.resource.org/cc/Attribution"/>
    <cc:permits rdf:resource="http://web.resource.org/cc/DerivativeWorks"/>
    <cc:requires rdf:resource="http://web.resource.org/cc/ShareAlike"/>
   </cc:License>
  </rdf:RDF>
 </metadata>
 <g id="layer1" transform="translate(-18.054105,0.7453965)" stroke-dashoffset="0" stroke-miterlimit="4">
  <path id="path9903" stroke-linejoin="miter" style="color:#000000;" d="m24.336,33.303c1.0712,0.006,1.8681,3.2329,1.8457,7.2031-0.02242,3.9702-1.6909,7.1832-1.9269,7.1818-0.26304-0.0015-1.8681-3.2329-1.8457-7.2031,0.02242-3.9702,0.85565-7.1879,1.9269-7.1818z" fill-rule="evenodd" stroke="#000" stroke-linecap="butt" stroke-width="0.99999958" fill="#FFF"/>
  <g id="g9975" stroke-linejoin="miter" transform="matrix(0.60592497,0.52279325,-0.52279325,0.60592497,23.283045,-4.2769796)" stroke="#000" stroke-linecap="butt" stroke-dasharray="none" stroke-width="1.25350261">
   <path id="path9905" style="color:#000000;" d="m32.086,57.686c5.659-1.884,13.874-1.4796,18.348,0.90315,1.2286,0.65428,2.0877,1.4177,2.5123,2.2324" transform="matrix(-0.56251,-0.817194,0.825069,-0.567931,-15.22056,83.88674)" fill="none"/>
   <path id="path9907" style="color:#000000;" d="m36.365,54.473c0.49229,0.82397-0.39112,1.6998-1.9731,1.9562-1.5156,0.24563-3.1363-0.16612-3.6975-0.93941l2.806-0.552z" fill-rule="evenodd" transform="matrix(-0.56251,-0.817194,0.825069,-0.567931,-14.28556,81.45324)" fill="#FFF"/>
  </g>
  <path id="path9898" stroke-linejoin="miter" style="color:#000000;" d="m21.172,28.105c0.03875,5.0906,0.3539,9.6957,0.83332,13.181l4.6951,0.02651c0.58438-3.92,0.96003-9.2578,0.99316-15.124,0.061-10.589-1.026-19.445-2.507-21.438-0.047-0.0601-0.109-0.1402-0.156-0.1869-0.03362-0.03193-0.0907-0.068806-0.12468-0.093713-0.05448-0.037586-0.13193-0.074885-0.18728-0.094066-0.01386-0.00421-0.04851-0.028314-0.06243-0.031354-0.01394-0.00245-0.04861,0.0009155-0.0626-0.0003534-0.007-0.0003351-0.02428-0.0001367-0.0313-0.0001764-0.007-0.0000385-0.02429-0.000436-0.0313-0.0001764-0.01401,0.00111-0.04864-0.00265-0.0626-0.0003533-0.01395,0.00288-0.04887,0.026593-0.06278,0.030648-0.05556,0.018555-0.13343,0.054977-0.18833,0.091945-0.03426,0.024524-0.09175,0.06075-0.12573,0.092299-0.04748,0.046114-0.11067,0.12554-0.15755,0.18512-1.504,1.9761-2.6904,10.819-2.7502,21.408-0.0037,0.65886-0.01593,1.309-0.01103,1.9531z" fill-rule="evenodd" stroke="#000" stroke-linecap="butt" stroke-dasharray="none" stroke-width="0.9999997" fill="url(#linearGradient4915-441)"/>
  <path id="path9893" stroke-linejoin="miter" style="color:#000000;" d="m20.965,20.415c0.01412,1.2866,0.07373,2.5548,0.13532,3.7521l6.5732,0.03712c0.10684-1.7019,0.1764-3.5215,0.18697-5.3935,0.05045-8.9342-1.1142-16.407-2.6837-18.09-0.01398-0.014507-0.0482-0.048772-0.06225-0.062358-0.01408-0.013126-0.04811-0.050162-0.06225-0.062358-0.03544-0.029325-0.08885-0.070276-0.12468-0.093713-0.01436-0.008901-0.04801-0.023407-0.06243-0.031354-0.04334-0.022396-0.11231-0.049228-0.15615-0.062888-0.01464-0.00406-0.04773-0.028281-0.06243-0.031354-0.02208-0.003877-0.07171,0.001101-0.0939-0.00053055-0.0074-0.00029076-0.02388-0.00013486-0.0313-0.00017696-0.0074-0.00004414-0.02389-0.0003861-0.0313-0.00017639-0.02222,0.001381-0.07178-0.004153-0.0939-0.0005303-0.01473,0.002911-0.04809,0.026751-0.06278,0.030649-0.044,0.013164-0.11326,0.039216-0.15685,0.06112-0.0145,0.007784-0.04832,0.021911-0.06278,0.030649-0.03608,0.023034-0.08996,0.063374-0.12573,0.0923-0.01428,0.012034-0.04872,0.048686-0.06295,0.06165-0.0142,0.013425-0.04881,0.047303-0.06295,0.06165-1.588,1.6661-2.837,9.1248-2.887,18.059-0.0031,0.55591-0.01524,1.0996-0.0093,1.6431z" fill-rule="evenodd" stroke="#000" stroke-linecap="butt" stroke-dasharray="none" stroke-width="0.9999997" fill="url(#linearGradient4915-441)"/>
  <path id="path9888" stroke-linejoin="miter" style="color:#000000;" d="m22.113,5.5708,4.6325,0.02616c-0.36677-3.0158-1.0668-5.2083-1.9084-5.7259-0.0054-0.003199-0.02574-0.016043-0.03119-0.019101-0.0055-0.002919-0.02572-0.01632-0.03119-0.0191-0.0055-0.00264-0.0257-0.016599-0.0312-0.019101-0.03305-0.014153-0.09155-0.029558-0.12499-0.038555-0.0056-0.001352-0.02571,0.001033-0.0313-0.00017638-0.0056-0.001066-0.02558-0.018182-0.03119-0.0191-0.0056-0.0007699-0.02567,0.00044758-0.0313-0.00017696-0.0056-0.00047902-0.02565,0.00015171-0.0313-0.00017638-0.0057-0.00017995-0.02563-0.00014449-0.0313-0.00017696-0.0057-0.00003576-0.02564-0.00029414-0.0313-0.00017639-0.0057,0.00026406-0.02565-0.00059018-0.0313-0.00017696-0.0056,0.00055567-0.02567-0.000884-0.0313-0.00017638-0.0056,0.00084728-0.02579,0.017745-0.03141,0.018746-0.0056,0.001153-0.0257-0.001469-0.0313-0.00017639-0.03353,0.008619-0.09221,0.023365-0.12542,0.037141-0.0055,0.002439-0.02589,0.016169-0.03141,0.018747-0.0055,0.002722-0.02591,0.015888-0.03141,0.018747-0.0055,0.003-0.02593,0.015607-0.03141,0.018746-0.853,0.50805-1.578,2.6926-1.979,5.704z" fill-rule="evenodd" stroke="#000" stroke-linecap="butt" stroke-dasharray="none" stroke-width="0.9999997" fill="url(#linearGradient4915-441)"/>
  <path id="path9930" opacity="0.35714285" stroke-linejoin="round" style="color:#000000;" fill="none" stroke="url(#linearGradient4906-137)" stroke-linecap="round" stroke-dasharray="none" stroke-width="1" d="m22.116,21.691c0.0021,0.32727,0.01508,0.63984,0.01934,0.96186l4.5537,0.02323c0.02389-0.93197,0.15597-2.3873,0.17586-3.3597,0.229-11.195-2.105-18.495-2.413-18.497-0.33839-0.002706-2.4983,7.3723-2.3333,18.214,0.0097,0.63654-0.0069,2.0383-0.0028,2.6584z"/>
 </g>
</svg>
