<?xml version="1.0" encoding="UTF-8" standalone="no"?>
<!-- Created with Inkscape (http://www.inkscape.org/) -->
<svg id="svg2" xmlns:rdf="http://www.w3.org/1999/02/22-rdf-syntax-ns#" xmlns="http://www.w3.org/2000/svg" preserveAspectRatio="xMinYMin meet" viewBox="0 0 423.19 515.75" version="1.1" xmlns:cc="http://creativecommons.org/ns#" xmlns:dc="http://purl.org/dc/elements/1.1/">
 <title id="title5724">RING</title>
 <defs id="defs4"></defs>
 <metadata id="metadata7">
  <rdf:RDF>
   <cc:Work rdf:about="">
    <dc:format>image/svg+xml</dc:format>
    <dc:type rdf:resource="http://purl.org/dc/dcmitype/StillImage"/>
    <dc:title>RING</dc:title>
   </cc:Work>
  </rdf:RDF>
 </metadata>
 <g id="layer1" fill="#000" transform="translate(-629.44889,-502.12334)">
  <path id="path6379" d="m786.29,511.32c-0.939,0.007-1.9748,0.0271-3.055,0.0654-9.9453,0.35309-11.795,1.2082-14.38,6.721-1.8298,3.9013-1.8548,4.2114-1.8548,18.636,0,19.164,1.9089,30.046,7.3538,41.897,3.2472,7.0678,3.2176,6.9462,2.0076,7.1793-1.2886,0.24816-4.3716-5.877-6.9611-13.813-1.8472-5.6613-1.975-5.8493-2.684-3.9933-0.89062,2.3312-5.9683,10.263-10.649,16.65-1.864,2.5434-3.3903,4.9001-3.4042,5.2372-0.0138,0.33708-0.81681,1.5537-1.7894,2.7059-0.97255,1.1522-4.7743,5.8656-8.4449,10.474-3.6706,4.6087-7.0312,8.6937-7.463,9.0778-0.43177,0.38406-2.6144,2.9919-4.8444,5.7827s-6.626,7.9756-9.776,11.522c-3.15,3.5462-8.6627,9.8939-12.264,14.119-3.601,4.2246-8.4718,9.7237-10.823,12.22-17.616,18.7-27.856,33.88-36.726,54.466-1.241,2.8804-3.2847,7.2796-4.5389,9.776-3.727,7.4188-8.5056,18.861-10.06,24.091-9.8219,33.052-12.422,42.499-13.966,50.626-2.1494,11.317-3.0947,26.621-2.1603,35.133,0.94018,8.5646,3.7828,24.058,5.2153,28.412,0.56869,1.7283,1.5403,5.0296,2.1385,7.332,1.569,6.0386,6.2583,16.065,14.162,30.223,3.802,6.8103,7.673,13.787,8.5977,15.515,7.8096,14.596,12.364,20.785,27.561,37.358,10.745,11.719,18.339,18.969,24.004,22.934,19.282,13.497,24.179,16.518,37.904,23.305,24.067,11.901,48.478,19.174,74.171,22.127,10.829,1.2447,34.95,0.9382,45.389-0.5892,21.609-1.4166,44.964-12.446,64.941-21.516,31.864-17.18,58.421-41.925,81.001-70.003,20.216-27.092,31.184-52.519,36.42-84.493,1.5769-9.6288,1.7979-37.791,0.3709-47.484-4.2532-28.888-10.98-50-24.636-77.357-8.6407-17.309-19.134-33.706-31.881-49.862-2.786-3.5311-5.0626-6.7662-5.0626-7.1793,0-2.677-20.493-28.584-33.431-42.268-6.7114-7.0988-12.742-14.47-17.719-21.669-2.4015-3.4735-4.9333-7.0871-5.63-8.0303-1.9993-2.7067-9.5232-16.296-9.536-17.217-0.006-0.4574-0.29411-1.0127-0.63283-1.222-0.33871-0.20933-1.1332,1.6864-1.7675,4.2116-1.6007,6.3726-5.8334,14.456-10.889,20.818l-4.277,5.3899,2.4004,2.6622c1.3199,1.4609,3.6024,4.8188,5.0626,7.463,1.4602,2.6441,3.5054,6.0577,4.5389,7.5939s2.9593,5.0096,4.2988,7.7248c1.9865,4.0266,8.9562,14.866,13.748,21.385,2.9557,4.0212-5.0107,1.2592-13.202-4.5825-1.7283-1.2325-7.2273-4.3971-12.22-7.0265-4.9928-2.6294-10.961-6.129-13.267-7.7685-4.9122-3.4912-14.544-8.4864-17.501-9.0777-1.3082-0.26165-3.4275,0.10587-5.7609,1.0256-3.8656,1.5237-6.4155,1.8632-6.4155,0.85104,0-0.66859,9.775-5.2232,12.678-5.9136,6.3186-1.5027,21.127-12.798,27.015-20.6,9.1717-12.153,10.088-14.436,14.446-35.722,4.5513-22.229,4.6995-31.953,0.611-38.93-2.2371-3.8174-4.7303-5.0626-10.103-5.0626-3.8568,0-4.2247,0.12571-3.6878,1.222,1.1578,2.3642,0.38813,14.968-1.4402,23.567-3.7895,17.822-3.9668,18.447-8.9905,34.914-0.82016,2.6884-2.3884,6.2297-3.4914,7.8776-4.3302,6.4694-16.685,14.874-32.623,22.192-4.8007,2.2044-9.5963,4.6145-10.649,5.3463-2.6417,1.8365-3.9233,1.7962-7.1575-0.26186-10.628-6.7632-22.19-12.96-29.917-16.039-4.2911-1.7096-6.2975-3.0296-9.3178-6.11-4.4155-4.5034-6.1646-7.6216-10.802-19.225-8.9737-22.454-10.242-34.897-5.0408-49.382,0.91307-2.5428,1.6584-4.845,1.6584-5.1281,0-0.21227-1.9837-0.32712-4.8007-0.3055zm-0.69828,86.522c2.2564,0,3.4042,0.85053,3.4042,2.5313,0,1.3169,1.0299,2.356,4.7134,4.7134,2.5924,1.6591,5.8132,3.6132,7.1574,4.3425,4.0145,2.178,4.888,3.1561,4.888,5.5208,0,2.8862-1.4823,4.1389-6.6337,5.6081-8.1545,2.3257-21.281,10.062-29.677,17.501-0.96015,0.85065-3.0461,2.2295-4.648,3.055-2.542,1.3099-3.2873,1.3979-5.8045,0.72011-1.5863-0.42716-3.0599-1.2334-3.2732-1.7894-0.62585-1.6309-1.4321-1.1883-3.6442,1.9639-1.1454,1.6322-2.9354,3.9104-3.9715,5.0626s-4.9039,5.6838-8.5977,10.06c-6.3292,7.4981-8.23,9.9231-13.988,18.025-1.3039,1.8347-3.3464,4.4054-4.5389,5.7172l-2.1603,2.4004,2.444-1.6584c1.3442-0.90663,4.0152-2.9407,5.9354-4.517,3.2688-2.6833,8.1103-5.8944,19.334-12.809,2.5727-1.585,8.7002-4.9838,13.617-7.5502,4.9164-2.5665,11.461-6.1149,14.533-7.8994,5.0052-2.907,12.319-5.998,27.233-11.478,8.0757-2.9674,11.718-3.8835,26.6-6.6992,13.609-2.5749,14.555-2.6505,21.407-2.0076,7.2416,0.67951,14.486,2.0628,18.33,3.5133,4.4789,1.6898,19.729,8.5756,23.044,10.409,1.9203,1.062,5.3768,2.5578,7.6812,3.3169,6.2455,2.0572,18.412,7.3156,22.738,9.8197,2.0938,1.2118,6.3034,3.4845,9.3614,5.0626,8.4045,4.3372,30.3,19.121,40.523,27.364,9.9379,8.0136,13.347,11.392,19.596,19.399,2.2789,2.9205,5.9857,7.4768,8.2267,10.125,9.6012,11.346,14.837,27.748,17.566,54.968,2.4485,24.416,0.1383,72.976-4.1024,86.37-5.7256,18.083-13.065,33.838-24.527,52.612-0.76812,1.2581-3.1511,4.7812-5.3026,7.8339-27.517,39.042-62.7,61.939-107.89,70.2-6.9599,1.2723-11.379,1.5467-27.168,1.7021-10.37,0.10202-19.954,0.048-21.298-0.10911-22.502-2.6296-37.111-6.072-53.223-12.547-37.701-15.152-68.49-42.951-89.206-80.543-7.824-14.197-11.773-23.654-16.148-38.799-3.6911-12.776-5.253-28.637-5.019-50.975,0.414-39.507,3.3063-51.123,20.316-82.049,7.3056-13.283,17.773-27.163,34.762-46.065,1.5683-1.745,5.1784-6.3064,8.0303-10.147,5.5272-7.4434,18.302-23.01,19.487-23.742,0.39118-0.24176,3.0356-3.4828,5.87-7.2011s5.8055-7.295,6.5901-7.943c0.78463-0.64806,3.9382-4.9151,7.0047-9.4924,8.5778-12.803,18.047-23.895,20.425-23.895z"/>
  <path id="path6357" d="m867.06,502.12c-19.321,0.01-45.02,0.51369-56.016,1.3093-11.598,0.83913-14.282,1.4626-15.45,3.6442-0.77597,1.4499-1.1918,0.9655,12.482,15.057,1.6322,1.6821,2.9677,3.3418,2.9677,3.6878,0,1.8204-2.4932-0.14343-9.4924-7.5066-4.259-4.4805-7.8935-7.8578-8.0958-7.5066-0.20232,0.35121-1.1205,2.8324-2.0294,5.5208-1.4118,4.1759-1.6496,6.2615-1.6584,14.315-0.51145,10.979,5.3915,31.165,12.373,43.294,1.2016,2.1173,3.9314,5.5688,6.0664,7.6812,3.238,3.2036,5.0019,4.2741,10.649,6.4373,3.7234,1.4263,8.2887,3.5267,10.125,4.6698,1.8365,1.1431,3.4606,1.9512,3.6224,1.7894,0.16179-0.16179-4.0571-4.776-9.3832-10.256-8.7234-8.9755-9.9515-9.9972-12.329-10.191-2.6652-0.21682-3.7904-1.5275-1.3093-1.5275h5.7609,31.903,20.294c-5.305,0.99175-12.18,1.7457-20.861,1.7457h-30.725l7.943,8.0303c4.3663,4.4167,9.0456,9.5674,10.387,11.456,1.6848,2.3724,4.2321,4.5837,8.2704,7.1138,3.2153,2.0145,6.2518,3.6765,6.7428,3.7097s3.3294-2.3698,6.3064-5.3463,6.1397-6.3544,7.0265-7.5066,3.2305-3.8207,5.2153-5.9354c10.204-12.832,21.12-25.033,32.252-37.053-1.6447,5.5443-6.6597,9.4744-10.474,13.617-10.033,10.404-17.987,22.228-27.67,32.972-1.1168,1.2151-2.0294,2.3638-2.0294,2.5531,0,0.76364,9.2245-3.6329,16.432-7.8339,5.529-3.2229,9.1137-5.9473,12.896-9.776,4.8826-4.942,5.3662-5.6878,6.8956-10.889,3.5163-13.342,8.7408-26.769,9.6233-40.632-0.1904-0.19046-4.5246,0.47448-9.6451,1.462-17.383,3.3527-27.702,3.9974-51.913,3.2296-13.704-0.43457-23.569-1.0843-26.884-1.7457-6.4166-1.2802-19.423-3.559-23.916-4.1897-1.8243-0.25609-0.3055-0.99241-0.3055-1.3529,0-1.4179,6.8346-0.14126,23.873,3.0768,11.198,2.1151,48.82,2.7857,62.497,1.1129,8.3536-1.0218,22.736-3.4328,25.946-4.3425,0.8926-0.25293,1.2862-1.5269,1.6584-5.499,0.4508-4.8105,0.3463-5.4209-1.3748-8.3576-1.0202-1.7409-2.1053-3.1641-2.4221-3.1641-0.3169,0-1.4152,1.2822-2.444,2.8368-2.6965,4.0746-6.7111,8.3358-7.834,8.3358-1.0898,0-1.3023-1.0994-0.3273-1.7021,1.7282-1.0681,8.5214-11.042,8.1613-11.98-0.5769-1.5033-4.1244-2.8097-10.431-3.8188-2.4486-0.39181-11.757-0.55143-23.349-0.54554zm-56.3,29.917c1.1413,0-0.32328,2.7684-3.7533,7.1138-3.7162,4.708-8.2177,10.839-10.409,14.075-1.9487-4.0328,10.683-17.989,14.162-21.189zm80.609,1.5057c0.863-0.10461,2.9707,1.3137,6.9173,5.2372,2.1447,2.7996,5.7691,3.53,0.8729,2.6186-1.9226-1.2736-8.3793-7.4195-8.074-7.7248,0.075-0.0746,0.1604-0.11598,0.2838-0.13093zm-92.327,24.396c4.1562,2.2939,13.474,8.1495,14.62,9.296,1.0853,1.0853-6.923-2.8637-12.024-5.9354-0.71364-0.42977-1.6241-1.6955-2.5968-3.3605z"/>
 </g>
</svg>
