<?xml version="1.0" encoding="UTF-8" standalone="no"?>
<!-- Created with Inkscape (http://www.inkscape.org/) -->
<svg id="svg43935" xmlns:rdf="http://www.w3.org/1999/02/22-rdf-syntax-ns#" xmlns="http://www.w3.org/2000/svg" viewBox="0 0 445.39 827.35" height="100%" width="100%" version="1.0" preserveAspectRatio="xMinYMin meet" xmlns:cc="http://creativecommons.org/ns#" xmlns:xlink="http://www.w3.org/1999/xlink" xmlns:dc="http://purl.org/dc/elements/1.1/">
 <title id="title10335">SODACAN</title>
 <defs id="defs43937">
  <filter id="filter43185" width="1.4894646" y="-0.18364957" x="-0.24473231" height="1.3672991" color-interpolation-filters="sRGB">
   <feGaussianBlur id="feGaussianBlur43187" stdDeviation="0.3511564"/>
  </filter>
  <filter id="filter40034" color-interpolation-filters="sRGB">
   <feGaussianBlur id="feGaussianBlur40036" stdDeviation="1.8669463"/>
  </filter>
  <filter id="filter35457" width="1.1422874" y="-0.25739276" x="-0.071143679" height="1.5147855" color-interpolation-filters="sRGB">
   <feGaussianBlur id="feGaussianBlur35459" stdDeviation="0.62974105"/>
  </filter>
  <filter id="filter34388" width="1.1226932" y="-0.13965081" x="-0.061346602" height="1.2793016" color-interpolation-filters="sRGB">
   <feGaussianBlur id="feGaussianBlur34390" stdDeviation="1.0501145"/>
  </filter>
  <filter id="filter36692" width="1.3517317" y="-0.16543651" x="-0.1758658" height="1.330873" color-interpolation-filters="sRGB">
   <feGaussianBlur id="feGaussianBlur36694" stdDeviation="4.7504803"/>
  </filter>
  <filter id="filter28813" width="3.1780002" y="-0.056817397" x="-1.0890001" height="1.1136348" color-interpolation-filters="sRGB">
   <feGaussianBlur id="feGaussianBlur28815" stdDeviation="0.25192989"/>
  </filter>
  <filter id="filter27806" width="1.1319472" y="-0.35924706" x="-0.06597361" height="1.7184941" color-interpolation-filters="sRGB">
   <feGaussianBlur id="feGaussianBlur27808" stdDeviation="1.2183359"/>
  </filter>
  <linearGradient id="linearGradient10311" x1="421.46" gradientUnits="userSpaceOnUse" y1="916.65" gradientTransform="matrix(1.0426264,0,0,0.9395796,168.33827,-226.45247)" x2="0" y2="916.65">
   <stop id="stop8860" stop-color="#FFF" offset="0"/>
   <stop id="stop8862" stop-color="#000" stop-opacity="0.68663597" offset="0.015315"/>
   <stop id="stop8864" stop-color="#000" stop-opacity="0.86175114" offset="0.13957"/>
   <stop id="stop8866" stop-color="#000" stop-opacity="0.77254903" offset="0.34356"/>
   <stop id="stop8868" stop-color="#000" stop-opacity="0.55686277" offset="0.42255"/>
   <stop id="stop8870" stop-color="#000" stop-opacity="0.43317974" offset="0.45062"/>
   <stop id="stop8872" stop-color="#000" stop-opacity="0.60368663" offset="0.5882"/>
   <stop id="stop8874" stop-color="#000" offset="0.736"/>
   <stop id="stop8876" stop-color="#000" stop-opacity="0.40552995" offset="0.8598"/>
   <stop id="stop8878" stop-color="#000" offset="1"/>
  </linearGradient>
  <linearGradient id="linearGradient3383" y2="916.65" xlink:href="#linearGradient10311" gradientUnits="userSpaceOnUse" x2="0" gradientTransform="matrix(1.0426264,0,0,0.9395796,2.6569,-355.59734)" y1="916.65" x1="421.46"/>
  <linearGradient id="linearGradient3387" y2="787.71" gradientUnits="userSpaceOnUse" x2="576.55" y1="786.71" x1="134.83">
   <stop id="stop8926" stop-color="#FFF" stop-opacity="0.72811061" offset="0"/>
   <stop id="stop8928" stop-color="#000" stop-opacity="0.13364056" offset="0.067797"/>
   <stop id="stop8930" stop-color="#000" stop-opacity="0.49803922" offset="0.13559"/>
   <stop id="stop8932" stop-color="#FFF" stop-opacity="0.89400923" offset="0.15645"/>
   <stop id="stop8934" stop-color="#FFF" offset="0.19818"/>
   <stop id="stop8936" stop-color="#000" stop-opacity="0.49803922" offset="0.22535"/>
   <stop id="stop8938" stop-color="#000" stop-opacity="0.12903225" offset="0.50412"/>
   <stop id="stop8940" stop-color="#000" stop-opacity="0.91244239" offset="0.65818"/>
   <stop id="stop8942" stop-color="#000" offset="0.82909"/>
   <stop id="stop8944" stop-color="#000" stop-opacity="0.51152074" offset="0.92275"/>
   <stop id="stop8946" stop-color="#FFF" stop-opacity="0" offset="1"/>
  </linearGradient>
  <linearGradient id="linearGradient3389" y2="916.65" gradientUnits="userSpaceOnUse" x2="0" gradientTransform="matrix(1.0487025,0,-0.1180468,0.1686383,-31.342098,-1009.4825)" y1="916.65" x1="421.46">
   <stop id="stop8950" stop-color="#FFF" offset="0"/>
   <stop id="stop8952" stop-color="#000" stop-opacity="0.68663597" offset="0.015315"/>
   <stop id="stop8954" stop-color="#000" stop-opacity="0.86175114" offset="0.13957"/>
   <stop id="stop8956" stop-color="#000" stop-opacity="0.77254903" offset="0.34356"/>
   <stop id="stop8958" stop-color="#000" stop-opacity="0.55686277" offset="0.42255"/>
   <stop id="stop8960" stop-color="#000" stop-opacity="0.43317974" offset="0.45062"/>
   <stop id="stop8962" stop-color="#000" stop-opacity="0.60368663" offset="0.5882"/>
   <stop id="stop8964" stop-color="#000" offset="0.736"/>
   <stop id="stop8966" stop-color="#000" stop-opacity="0.40552995" offset="0.8598"/>
   <stop id="stop8968" stop-color="#000" offset="1"/>
  </linearGradient>
  <linearGradient id="linearGradient3391" y2="877.31" gradientUnits="userSpaceOnUse" x2="421.68" gradientTransform="matrix(-1.0487025,0,0.1059648,0.1686383,166.40548,-1009.803)" y1="877.31" x1="-3.7779">
   <stop id="stop8972" stop-color="#FFF" offset="0"/>
   <stop id="stop8974" stop-color="#000" stop-opacity="0.68663597" offset="0.015315"/>
   <stop id="stop8976" stop-color="#000" stop-opacity="0.86175114" offset="0.13957"/>
   <stop id="stop8978" stop-color="#000" stop-opacity="0.77254903" offset="0.34356"/>
   <stop id="stop8980" stop-color="#000" stop-opacity="0.55686277" offset="0.42255"/>
   <stop id="stop8982" stop-color="#000" stop-opacity="0.43317974" offset="0.45062"/>
   <stop id="stop8984" stop-color="#000" stop-opacity="0.60368663" offset="0.5882"/>
   <stop id="stop8986" stop-color="#000" offset="0.736"/>
   <stop id="stop8988" stop-color="#000" stop-opacity="0.40552995" offset="0.8598"/>
   <stop id="stop8990" stop-color="#000" offset="1"/>
  </linearGradient>
  <linearGradient id="linearGradient3393" y2="787.71" gradientUnits="userSpaceOnUse" x2="576.55" gradientTransform="matrix(0.869965,0,0,0.478947,76.43045,-211.68327)" y1="786.71" x1="134.83">
   <stop id="stop8994" stop-color="#FFF" stop-opacity="0.72811061" offset="0"/>
   <stop id="stop8996" stop-color="#000" stop-opacity="0.13364056" offset="0.067797"/>
   <stop id="stop8998" stop-color="#000" stop-opacity="0.49803922" offset="0.13559"/>
   <stop id="stop9000" stop-color="#FFF" stop-opacity="0.89400923" offset="0.15645"/>
   <stop id="stop9002" stop-color="#FFF" offset="0.19818"/>
   <stop id="stop9004" stop-color="#000" stop-opacity="0.49803922" offset="0.22535"/>
   <stop id="stop9006" stop-color="#000" stop-opacity="0.12903225" offset="0.50412"/>
   <stop id="stop9008" stop-color="#000" stop-opacity="0.91244239" offset="0.65818"/>
   <stop id="stop9010" stop-color="#000" offset="0.82909"/>
   <stop id="stop9012" stop-color="#000" stop-opacity="0.51152074" offset="0.92275"/>
   <stop id="stop9014" stop-color="#FFF" stop-opacity="0" offset="1"/>
  </linearGradient>
  <linearGradient id="linearGradient3395" y2="701.97" gradientUnits="userSpaceOnUse" x2="-913.07" y1="722.15" x1="-422.23">
   <stop id="stop9018" stop-color="#FFF" stop-opacity="0.72811061" offset="0"/>
   <stop id="stop9020" stop-color="#000" stop-opacity="0.13364056" offset="0.067797"/>
   <stop id="stop9022" stop-color="#000" stop-opacity="0.49803922" offset="0.13559"/>
   <stop id="stop9024" stop-color="#FFF" stop-opacity="0.89400923" offset="0.15645"/>
   <stop id="stop9026" stop-color="#FFF" offset="0.19818"/>
   <stop id="stop9028" stop-color="#000" stop-opacity="0.49803922" offset="0.22535"/>
   <stop id="stop9030" stop-color="#000" stop-opacity="0.12903225" offset="0.50412"/>
   <stop id="stop9032" stop-color="#000" stop-opacity="0.91244239" offset="0.65818"/>
   <stop id="stop9034" stop-color="#000" offset="0.82909"/>
   <stop id="stop9036" stop-color="#000" stop-opacity="0.51152074" offset="0.92275"/>
   <stop id="stop9038" stop-color="#FFF" stop-opacity="0" offset="1"/>
  </linearGradient>
  <linearGradient id="linearGradient3397" y2="-134.5" gradientUnits="userSpaceOnUse" x2="-376.57" gradientTransform="matrix(0.99433,0,0,1,558.06077,258.48532)" y1="-127.3" x1="66.819">
   <stop id="stop9042" stop-color="#FFF" stop-opacity="0.72811061" offset="0"/>
   <stop id="stop9044" stop-color="#000" stop-opacity="0.13364056" offset="0.067797"/>
   <stop id="stop9046" stop-color="#000" stop-opacity="0.49803922" offset="0.13559"/>
   <stop id="stop9048" stop-color="#FFF" stop-opacity="0.89400923" offset="0.15645"/>
   <stop id="stop9050" stop-color="#FFF" offset="0.19818"/>
   <stop id="stop9052" stop-color="#000" stop-opacity="0.49803922" offset="0.22535"/>
   <stop id="stop9054" stop-color="#000" stop-opacity="0.12903225" offset="0.50412"/>
   <stop id="stop9056" stop-color="#000" stop-opacity="0.91244239" offset="0.65818"/>
   <stop id="stop9058" stop-color="#000" offset="0.82909"/>
   <stop id="stop9060" stop-color="#000" stop-opacity="0.51152074" offset="0.92275"/>
   <stop id="stop9062" stop-color="#FFF" stop-opacity="0" offset="1"/>
  </linearGradient>
  <linearGradient id="linearGradient3399" y2="29.347" gradientUnits="userSpaceOnUse" x2="-36.986" gradientTransform="translate(558,159)" y1="-18.562" x1="-276.43">
   <stop id="stop9066" stop-color="#FFF" offset="0"/>
   <stop id="stop9068" stop-color="#000" stop-opacity="0.49803922" offset="0.31337"/>
   <stop id="stop9070" stop-color="#FFF" stop-opacity="0.74074072" offset="0.48515"/>
   <stop id="stop9072" stop-color="#FFF" stop-opacity="0.31372549" offset="0.62049"/>
   <stop id="stop9074" stop-color="#000" stop-opacity="0.34509805" offset="0.81024"/>
   <stop id="stop9076" stop-color="#FFF" stop-opacity="0.72222221" offset="0.8542"/>
   <stop id="stop9078" stop-color="#000" stop-opacity="0.37962964" offset="1"/>
  </linearGradient>
  <linearGradient id="linearGradient3401" y2="-4.2598" gradientUnits="userSpaceOnUse" x2="-181.08" gradientTransform="translate(558,159)" y1="21.509" x1="-215.64">
   <stop id="stop9130" stop-color="#FFF" offset="0"/>
   <stop id="stop9132" stop-color="#000" stop-opacity="0.49803922" offset="0.31337"/>
   <stop id="stop9134" stop-color="#FFF" stop-opacity="0.74074072" offset="0.48515"/>
   <stop id="stop9136" stop-color="#FFF" stop-opacity="0.31372549" offset="0.67616"/>
   <stop id="stop9138" stop-color="#000" stop-opacity="0.51152074" offset="0.81024"/>
   <stop id="stop9140" stop-color="#FFF" stop-opacity="0.27188939" offset="0.87564"/>
   <stop id="stop9142" stop-color="#FFF" stop-opacity="0.08755761" offset="1"/>
   <stop id="stop9144" stop-color="#000" stop-opacity="0.04166667" offset="1"/>
  </linearGradient>
  <linearGradient id="linearGradient3403" y2="152.23" gradientUnits="userSpaceOnUse" x2="-133.65" y1="151.49" x1="-185.27">
   <stop id="stop9172" stop-color="#FFF" offset="0"/>
   <stop id="stop9174" stop-color="#000" stop-opacity="0.49803922" offset="0.31337"/>
   <stop id="stop9176" stop-color="#FFF" stop-opacity="0.74074072" offset="0.48515"/>
   <stop id="stop9178" stop-color="#FFF" stop-opacity="0.31372549" offset="0.62049"/>
   <stop id="stop9180" stop-color="#000" stop-opacity="0.34509805" offset="0.81024"/>
   <stop id="stop9182" stop-color="#FFF" stop-opacity="0.72222221" offset="0.8542"/>
   <stop id="stop9184" stop-color="#000" stop-opacity="0.37962964" offset="1"/>
  </linearGradient>
  <radialGradient id="radialGradient3405" gradientUnits="userSpaceOnUse" cy="166.77" cx="-165.48" gradientTransform="matrix(-0.03082211,0.8630882,-1.2727272,-0.0454509,41.942867,315.53157)" r="3.2279">
   <stop id="stop9212" stop-color="#FFF" offset="0"/>
   <stop id="stop9214" stop-color="#000" stop-opacity="0.718894" offset="0.4661"/>
   <stop id="stop9216" stop-color="#FFF" stop-opacity="0.97695851" offset="0.75"/>
   <stop id="stop9218" stop-color="#FFF" stop-opacity="0.51764706" offset="0.9375"/>
   <stop id="stop9220" stop-color="#000" stop-opacity="0.05882353" offset="0.97034"/>
   <stop id="stop9222" stop-color="#000" stop-opacity="0.51612902" offset="1"/>
  </radialGradient>
 </defs>
 <metadata id="metadata43940">
  <rdf:RDF>
   <cc:Work rdf:about="">
    <dc:format>image/svg+xml</dc:format>
    <dc:type rdf:resource="http://purl.org/dc/dcmitype/StillImage"/>
    <dc:title>SODACAN</dc:title>
    <dc:date>2-17-2008</dc:date>
    <dc:creator>
     <cc:Agent>
      <dc:title>Reid Eby</dc:title>
     </cc:Agent>
    </dc:creator>
    <dc:rights>
     <cc:Agent>
      <dc:title>Public Domain</dc:title>
     </cc:Agent>
    </dc:rights>
    <dc:publisher>
     <cc:Agent>
      <dc:title>Reid Eby</dc:title>
     </cc:Agent>
    </dc:publisher>
    <dc:language>en</dc:language>
    <dc:subject>
     <rdf:Bag>
      <rdf:li>3D Green Soda Can Cylinder Inkscape</rdf:li>
     </rdf:Bag>
    </dc:subject>
    <dc:description>A green soda can created entirely in Inkscape .45</dc:description>
    <cc:license rdf:resource="http://web.resource.org/cc/PublicDomain"/>
    <dc:contributor>
     <cc:Agent>
      <dc:title>Reid Eby</dc:title>
     </cc:Agent>
    </dc:contributor>
   </cc:Work>
   <cc:License rdf:about="http://web.resource.org/cc/PublicDomain">
    <cc:permits rdf:resource="http://web.resource.org/cc/Reproduction"/>
    <cc:permits rdf:resource="http://web.resource.org/cc/Distribution"/>
    <cc:permits rdf:resource="http://web.resource.org/cc/DerivativeWorks"/>
   </cc:License>
  </rdf:RDF>
 </metadata>
 <path id="path9524" fill-rule="evenodd" fill="#FFF" d="m49.949,61.825-47.99,56.745,2.5729,8.3225-4.151,2.7239,0,602.81,23.671,33.139,41.029,23.671,91.527,25.249,71.012,11.046,50.498-3.1561,93.105-23.671,44.185-22.093,25.249-33.139,3.1561-11.046,1.578-607.55-3.8725,1.9508-38.735-68.229-37.902,15.693-34.701,8.3007-29.64,3.3585-44.516,2.6304-36.295,0-80.48-3.1561-34.157-7.7025-29.894-6.2391-25.249-9.6639z"/>
 <path id="path5249" stroke-linejoin="round" d="m2.6586,128.2,0,602.56,0,1.7323,0.16292,0c12.584,30.76,58.923,73.838,219.54,76.635,146.61,2.5526,214.28-50.725,219.54-76.635h0.16292s0.28647-6.4722,0-1.7323c-1.6068-1.3968,0-401.14,0-601.71-16.982,23.336-108.79,41.195-219.41,41.195-111.97,0.00002-204.67-18.291-219.99-42.046z" stroke-opacity="0.46753247" fill-rule="evenodd" stroke="#000" stroke-linecap="round" stroke-miterlimit="4" stroke-dasharray="none" stroke-width="4.45393229" fill="url(#linearGradient3383)"/>
 <path id="path2247" stroke-linejoin="round" d="m2.6586,128.2,0,602.56,0,1.7323,0.16292,0c12.584,30.76,58.923,73.838,219.54,76.635,146.61,2.5526,215.09-50.393,219.54-76.635h0.16292c0.32024,0.0552,0-1.7323,0-1.7323v-601.71c-16.982,23.336-108.79,41.195-219.41,41.195-111.97,0.00002-204.67-18.291-219.99-42.046z" fill-rule="evenodd" stroke="#000" stroke-linecap="round" stroke-miterlimit="4" stroke-dasharray="none" stroke-width="4.45393229" fill="url(#linearGradient3383)"/>
 <g id="g2205" stroke="#000" transform="translate(-133.74889,-12.21057)">
  <path id="path7193" stroke-linejoin="miter" d="m575.83,744.9,1.8784,0.1174-2.348-0.1174" stroke-linecap="butt" stroke-width="1px" fill="none"/>
  <path id="path7349" opacity="0.95999995" d="m134.64,746.03s2.059,4.443,4.6575,10.322c2.6663,6.0318,9.0711,13.386,8.8183,13.522,0.93863,1.0444,7.694,9.5383,10.683,17.037,8.0452,8.4109,14.334,13.247,28.605,20.666,33.811,17.578,86.897,31.47,173.67,31.47,115.82,0,168.25-27.684,196.29-53.539l8.6291-11.798,10.567-23.521c-18.394,30.37-74.237,72.79-215.48,72.79-152.11,0-212.93-44.158-226.43-76.949z" fill-rule="evenodd" fill="url(#linearGradient3387)"/>
  <g id="g9363" fill-opacity="0.66883114" fill-rule="evenodd" transform="translate(0,-100)" fill="#FFF">
   <path id="path9354" opacity="0.95999995" d="m134.54,845.74,9.2395,18.767c6.3427,7.8718,15.14,15.709,26.903,23.013,34.214,21.246,93.421,39.716,190.38,39.716,126.37,0.00008,184.35-32.213,208.34-61.114l7.1562-15.938c-18.394,30.37-74.253,72.781-215.5,72.781-152.11,0-211.24-42.071-226.52-77.226z"/>
   <path id="path9359" opacity="0.95999995" d="m134.71,846.47,8.6903,17.269c6.3443,7.8738,15.433,19.94,27.201,27.246,1.1175,0.6938,2.2618,1.3828,3.4332,2.0666,34.696,20.252,93.249,35.915,187.03,35.915,126.37,0.00008,184.35-33.942,208.34-62.844l7.1562-15.938c-18.394,30.37-74.253,72.781-215.5,72.781-152.11,0-211.08-41.341-226.35-76.497z"/>
   <path id="path9361" opacity="0.95999995" d="m134.19,845.4,6.2268,11.944,6.394,9.0361c24.791,30.768,86.919,62.591,217.21,62.591,126.37,0.00008,181.4-33.942,205.39-62.844l7.1562-15.938c-18.394,30.37-74.253,72.781-215.5,72.781-152.11,0-207.29-35.314-226.87-77.571z"/>
  </g>
 </g>
 <path id="path4266" d="m5.5386,116.15,35.528-42.092,9.4424-12.893c45.43,17.203,99.039,24.214,166.67,24.214,67.755,0,124.17-6.4377,184.68-28.161l3.5392,13.198,36.528,59.956,1.0593-1.6796-1.053,1.9047c-9.7097,9.8715-30.054,18.264-56.564,24.135-54.143,11.99-109.71,15.279-164.01,15.279-56.627,0-109.61-5.0514-149.16-13.382-36.12-7.6079-61.034-18.009-67.284-28.622l-1.1032-2.6803-1.3167-3.1991,3.0466-5.9789z" fill-opacity="0.66883114" fill-rule="evenodd" fill="#FFF"/>
 <g id="g7337" fill-rule="evenodd" transform="matrix(0.9919224,0,0,1.0209251,159.36496,959.45773)">
  <path id="path4396" fill="url(#linearGradient3389)" d="m-109.98-880.13-9.5366,13.325-35.535,40.693-2.7982,5.5435c0.88948,1.6121-0.0705,3.5404,1.2466,5.706,13.094,21.53,100.14,36.208,124.18,37.192,0,0,55.809,4.8276,79.025,4.088,0,0,0.08698-82.426,0.08698-82.426-38.842-0.57226-79.373-3.146-109.19-9.0819-27.645-5.5035-42.947-13.485-47.48-15.039z"/>
  <path id="path4409" fill="url(#linearGradient3391)" d="m244.87-883.42c-59.191,26.143-105.7,26.798-198.24,27.499v82.434s36.269,2.5893,122.1-5.2128c85.775-7.7969,108.82-25.291,118-34.722l-3.6509-6.3101-1.9348-3.1412-27.34-43.237-8.9343-17.31z"/>
 </g>
 <g id="g44872" stroke="#000" transform="translate(-165.68137,-105.14487)">
  <path id="path43533" stroke-linejoin="miter" d="m577.39,145.08,1.6341,0.0562-2.0426-0.0562" fill-rule="evenodd" stroke-linecap="butt" stroke-width="0.64549756px" fill="#FFF"/>
  <path id="path43535" opacity="0.95999995" d="m193.56,145.63s1.7912,2.128,4.0519,4.9435c2.3196,2.8889,7.8915,6.411,7.6716,6.4764,0.81658,0.50019,6.6935,4.5683,9.294,8.1599,6.9991,4.0284,12.47,6.3444,24.885,9.898,29.414,8.4191,75.597,15.073,151.09,15.073,100.76,0,146.37-13.259,170.76-25.642l7.507-5.6507,9.1926-11.266c-16.002,14.546-64.584,34.863-187.46,34.863-132.33,0-185.24-21.149-196.99-36.855z" fill-rule="evenodd" fill="#FFF"/>
  <path id="path43537" opacity="0.95999995" d="m193.48,145.49,8.038,8.9885c5.5179,3.7702,13.172,7.5236,23.405,11.022,29.765,10.175,81.273,19.022,165.62,19.022,109.94,0.00003,160.38-15.428,181.25-29.271l6.2257-7.6332c-16.002,14.546-64.598,34.858-187.48,34.858-132.33,0-183.77-20.15-197.06-36.987z" fill-rule="evenodd" fill-opacity="0.66883114" fill="#FFF"/>
  <path id="path43539" opacity="0.95999995" d="m193.62,145.84,7.5603,8.2711c5.5193,3.7711,13.426,9.5502,23.664,13.049,0.97219,0.33229,1.9677,0.66228,2.9868,0.98977,30.184,9.6996,81.124,17.201,162.71,17.201,109.94,0.00003,160.38-16.257,181.25-30.099l6.2257-7.6332c-16.002,14.546-64.598,34.858-187.48,34.858-132.33,0-183.63-19.8-196.92-36.638z" fill-rule="evenodd" fill-opacity="0.66883114" fill="#FFF"/>
  <path id="path43541" opacity="0.95999995" d="m193.17,145.32,5.4171,5.7205,5.5626,4.3278c21.567,14.736,75.617,29.978,188.96,29.978,109.94,0.00003,157.81-16.257,178.68-30.099l6.2257-7.6332c-16.002,14.546-64.598,34.858-187.48,34.858-132.33,0-180.34-16.914-197.37-37.153z" fill-rule="evenodd" fill-opacity="0.66883114" fill="#FFF"/>
  <path id="path43543" opacity="0.95999995" d="m-479.53,722.15c0,58.781-97.049,106.43-216.77,106.43s-216.77-47.652-216.77-106.43c0-58.782,97.049-106.43,216.77-106.43s216.77,47.652,216.77,106.43z" fill-rule="evenodd" fill-opacity="0.66883114" transform="matrix(0.881559,0,0,0.3456138,1000.9989,-103.91734)" fill="#FFF"/>
  <path id="path43545" opacity="0.95999995" d="m-479.53,722.15c0,58.781-97.049,106.43-216.77,106.43s-216.77-47.652-216.77-106.43c0-58.782,97.049-106.43,216.77-106.43s216.77,47.652,216.77,106.43z" fill-rule="evenodd" fill-opacity="0.66883114" transform="matrix(0.8374811,0,0,0.3233861,970.30747,-88.39227)" fill="#FFF"/>
  <path id="path43547" opacity="0.95999995" d="m-463.12,722.15c0,58.781-104.4,106.43-233.18,106.43s-233.18-47.652-233.18-106.43c0-58.782,104.4-106.43,233.18-106.43s233.18,47.652,233.18,106.43z" fill-rule="evenodd" fill-opacity="0.66883114" transform="matrix(0.7118737,0,0,0.2687562,883.30078,-43.75369)" fill="#FFF"/>
  <path id="path43549" opacity="0.95999995" d="m388.31,107.8c-104.23,0-188.84,17.227-188.84,38.455,0,12.173,27.855,23.05,71.239,30.099-37.594-7.1311-61.408-17.637-61.408-29.305,0.00002-21.47,80.434-38.871,179.53-38.871,99.099-0.00001,179.53,17.401,179.53,38.871-0.00002,10.947-20.933,20.873-54.563,27.943,38.833-7.0453,63.336-17.32,63.336-28.738,0-21.228-84.604-38.455-188.84-38.455z" fill-rule="evenodd" fill-opacity="0.51633989" fill="#FFF"/>
  <path id="path43551" opacity="0.95999995" d="m386.25,105.74c-104.23,0-188.84,17.227-188.84,38.455,0,12.173,27.855,23.05,71.239,30.099-37.594-7.1311-61.408-17.637-61.408-29.305,0.00002-21.47,80.434-38.871,179.53-38.871,99.099-0.00001,179.53,17.401,179.53,38.871-0.00002,10.947-20.933,20.873-54.563,27.943,38.833-7.0453,63.336-17.32,63.336-28.738,0-21.228-84.604-38.455-188.84-38.455z" fill-rule="evenodd" fill-opacity="0.67320263" fill="#FFF"/>
  <path id="path43555" opacity="0.95999995" d="m388.19,110.2c-99.64,0-180.5,15.407-180.5,34.406,0,2.5943,1.5232,5.1316,4.3813,7.5625,0.0303-0.005,0.0629,0.005,0.0932,0-0.4972-0.86224-0.77682-1.7428-0.77682-2.625,0-15.648,79.459-28.344,177.36-28.344,97.905,0,177.36,12.696,177.36,28.344,0,0.35041-0.0453,0.71515-0.12429,1.0625,1.7933-1.9457,2.7344-3.9568,2.7344-6,0-18.999-80.893-34.406-180.53-34.406z" fill-rule="evenodd" fill-opacity="0.66883114" fill="#FFF"/>
  <path id="path43557" opacity="0.95999995" d="m388.19,110.2c-99.64,0-180.5,15.407-180.5,34.406,0,2.5943,1.5232,5.1316,4.3813,7.5625,0.0303-0.005,0.0629,0.005,0.0932,0-0.4972-0.86224-0.77682-1.7428-0.77682-2.625,0-15.648,79.459-28.344,177.36-28.344,97.905,0,177.36,12.696,177.36,28.344,0,0.35041-0.0453,0.71515-0.12429,1.0625,1.7933-1.9457,2.7344-3.9568,2.7344-6,0-18.999-80.893-34.406-180.53-34.406z" fill-rule="evenodd" fill-opacity="0.66883114" fill="#FFF"/>
  <path id="path43559" opacity="0.95999995" d="m-463.12,722.15c0,58.781-104.4,106.43-233.18,106.43s-233.18-47.652-233.18-106.43c0-58.782,104.4-106.43,233.18-106.43s233.18,47.652,233.18,106.43z" fill-rule="evenodd" fill-opacity="0.66883114" transform="matrix(0.6935058,0,0,0.2625652,871.4996,-39.28288)" fill="#FFF"/>
  <path id="path43561" opacity="0.85" d="m384.47,126.28c-12.897,0.0303-25.678,0.46471-36.188,1.3125-10.262,0.82785-18.073,1.8948-22.562,3.8438-0.10816,0.047-0.27079,0.077-0.375,0.125v0.0312c-3.5094,1.0378-8.0762,3.3565-13.406,6.4688-5.4984,3.2106-11.669,7.1899-17.5,11.219-5.8314,4.0288-11.315,8.1026-15.531,11.5-2.1079,1.6987-3.9152,3.2285-5.2812,4.5312-1.3661,1.3028-3.1029,3.9871-3.1029,3.9871,3.2142,1.7157,93.992,9.9711,113.01,9.8412,16.67-0.11544,85.243-1.5226,118.55-9.1046,0,0-3.136-6.2566-7.8082-9.7549s-10.463-7.5756-16.469-11.562c-12.011-7.9738-24.563-15.569-31.656-17.75-5.1037-1.7348-13.84-2.7901-24.812-3.5625-10.973-0.77236-23.978-1.1553-36.875-1.125zm0.0312,4.75c12.798-0.0301,25.715,0.36364,36.531,1.125,10.817,0.76136,19.667,1.9771,23.688,3.3438,0.0207,0.0107,0.0415,0.0211,0.0625,0.0312,5.4813,1.6855,18.533,9.2738,30.406,17.156,5.9366,3.9412,11.64,7.9775,16.219,11.406,2.6848,2.0102,5.0846,5.1241,5.9302,6.8788-5.7654,0.91467-11.692,1.9074-18.199,2.6673-8.5633,1-18.151,2.2764-27.794,2.9816-9.6455,0.7054-19.759,1.0754-30.25,1.4467-10.495,0.37143-21.338,0.45772-32.469,0.45772s-22.006-0.61021-32.5-0.98163c-10.491-0.37131-20.709-1.37-30.355-2.0754-9.6435-0.70526-19.126-1.6672-27.689-2.6673-7.522-0.87843-15.843-1.3691-22.373-2.4448,1.1587-1.4862,4.408-4.4702,6.1673-5.8879,4.0843-3.2914,9.5304-7.3081,15.281-11.281,5.7509-3.9732,11.804-7.9062,17.156-11.031,5.352-3.1251,10.1-5.4485,12.656-6.1562,0.12825-0.0312,0.25369-0.073,0.375-0.125,2.7939-1.2874,11.014-2.6979,21.344-3.5312,10.33-0.83334,23.015-1.2824,35.812-1.3125z" fill-rule="evenodd" fill="#FFF"/>
  <path id="path43372" stroke-linejoin="miter" d="m577.39,145.08,1.6341,0.0562-2.0426-0.0562" stroke-linecap="butt" stroke-width="0.64549756px" fill="none"/>
  <path id="path43374" opacity="0.95999995" d="m193.56,145.63s1.7912,2.128,4.0519,4.9435c2.3196,2.8889,7.8915,6.411,7.6716,6.4764,0.81658,0.50019,6.6935,4.5683,9.294,8.1599,6.9991,4.0284,12.47,6.3444,24.885,9.898,29.414,8.4191,75.597,15.073,151.09,15.073,100.76,0,146.37-13.259,170.76-25.642l7.507-5.6507,9.1926-11.266c-16.002,14.546-64.584,34.863-187.46,34.863-132.33,0-185.24-21.149-196.99-36.855z" fill-rule="evenodd" fill="url(#linearGradient3393)"/>
  <path id="path43376" opacity="0.95999995" d="m193.48,145.49,8.038,8.9885c5.5179,3.7702,13.172,7.5236,23.405,11.022,29.765,10.175,81.273,19.022,165.62,19.022,109.94,0.00003,160.38-15.428,181.25-29.271l6.2257-7.6332c-16.002,14.546-64.598,34.858-187.48,34.858-132.33,0-183.77-20.15-197.06-36.987z" fill-rule="evenodd" fill-opacity="0.66883114" fill="#FFF"/>
  <path id="path43378" opacity="0.95999995" d="m193.62,145.84,7.5603,8.2711c5.5193,3.7711,13.426,9.5502,23.664,13.049,0.97219,0.33229,1.9677,0.66228,2.9868,0.98977,30.184,9.6996,81.124,17.201,162.71,17.201,109.94,0.00003,160.38-16.257,181.25-30.099l6.2257-7.6332c-16.002,14.546-64.598,34.858-187.48,34.858-132.33,0-183.63-19.8-196.92-36.638z" fill-rule="evenodd" fill-opacity="0.66883114" fill="#FFF"/>
  <path id="path43380" opacity="0.95999995" d="m193.17,145.32,5.4171,5.7205,5.5626,4.3278c21.567,14.736,75.617,29.978,188.96,29.978,109.94,0.00003,157.81-16.257,178.68-30.099l6.2257-7.6332c-16.002,14.546-64.598,34.858-187.48,34.858-132.33,0-180.34-16.914-197.37-37.153z" fill-rule="evenodd" fill-opacity="0.66883114" fill="#FFF"/>
  <path id="path43382" opacity="0.95999995" d="m-479.53,722.15c0,58.781-97.049,106.43-216.77,106.43s-216.77-47.652-216.77-106.43c0-58.782,97.049-106.43,216.77-106.43s216.77,47.652,216.77,106.43z" fill-rule="evenodd" fill-opacity="0.66883114" transform="matrix(0.881559,0,0,0.3456138,1000.9989,-103.91734)" fill="#FFF"/>
  <path id="path43384" opacity="0.95999995" d="m-479.53,722.15c0,58.781-97.049,106.43-216.77,106.43s-216.77-47.652-216.77-106.43c0-58.782,97.049-106.43,216.77-106.43s216.77,47.652,216.77,106.43z" fill-rule="evenodd" fill-opacity="0.66883114" transform="matrix(0.8374811,0,0,0.3233861,970.30747,-88.39227)" fill="url(#linearGradient3395)"/>
  <path id="path43386" opacity="0.95999995" d="m-463.12,722.15c0,58.781-104.4,106.43-233.18,106.43s-233.18-47.652-233.18-106.43c0-58.782,104.4-106.43,233.18-106.43s233.18,47.652,233.18,106.43z" fill-rule="evenodd" fill-opacity="0.66883114" transform="matrix(0.7118737,0,0,0.2687562,883.30078,-43.75369)" fill="#FFF"/>
  <path id="path43388" opacity="0.95999995" d="m388.31,107.8c-104.23,0-188.84,17.227-188.84,38.455,0,12.173,27.855,23.05,71.239,30.099-37.594-7.1311-61.408-17.637-61.408-29.305,0.00002-21.47,80.434-38.871,179.53-38.871,99.099-0.00001,179.53,17.401,179.53,38.871-0.00002,10.947-20.933,20.873-54.563,27.943,38.833-7.0453,63.336-17.32,63.336-28.738,0-21.228-84.604-38.455-188.84-38.455z" fill-rule="evenodd" fill-opacity="0.51633989" fill="#FFF"/>
  <path id="path43390" opacity="0.95999995" d="m386.25,105.74c-104.23,0-188.84,17.227-188.84,38.455,0,12.173,27.855,23.05,71.239,30.099-37.594-7.1311-61.408-17.637-61.408-29.305,0.00002-21.47,80.434-38.871,179.53-38.871,99.099-0.00001,179.53,17.401,179.53,38.871-0.00002,10.947-20.933,20.873-54.563,27.943,38.833-7.0453,63.336-17.32,63.336-28.738,0-21.228-84.604-38.455-188.84-38.455z" fill-rule="evenodd" fill-opacity="0.67320263" fill="#FFF"/>
  <path id="path43394" opacity="0.95999995" d="m388.19,110.2c-99.64,0-180.5,15.407-180.5,34.406,0,2.5943,1.5232,5.1316,4.3813,7.5625,0.0303-0.005,0.0629,0.005,0.0932,0-0.4972-0.86224-0.77682-1.7428-0.77682-2.625,0-15.648,79.459-28.344,177.36-28.344,97.905,0,177.36,12.696,177.36,28.344,0,0.35041-0.0453,0.71515-0.12429,1.0625,1.7933-1.9457,2.7344-3.9568,2.7344-6,0-18.999-80.893-34.406-180.53-34.406z" fill-rule="evenodd" fill-opacity="0.66883114" fill="#FFF"/>
  <path id="path43396" opacity="0.95999995" d="m388.19,110.2c-99.64,0-180.5,15.407-180.5,34.406,0,2.5943,1.5232,5.1316,4.3813,7.5625,0.0303-0.005,0.0629,0.005,0.0932,0-0.4972-0.86224-0.77682-1.7428-0.77682-2.625,0-15.648,79.459-28.344,177.36-28.344,97.905,0,177.36,12.696,177.36,28.344,0,0.35041-0.0453,0.71515-0.12429,1.0625,1.7933-1.9457,2.7344-3.9568,2.7344-6,0-18.999-80.893-34.406-180.53-34.406z" fill-rule="evenodd" fill-opacity="0.66883114" fill="url(#linearGradient3397)"/>
  <path id="path43398" opacity="0.95999995" d="m-463.12,722.15c0,58.781-104.4,106.43-233.18,106.43s-233.18-47.652-233.18-106.43c0-58.782,104.4-106.43,233.18-106.43s233.18,47.652,233.18,106.43z" fill-rule="evenodd" fill-opacity="0.66883114" transform="matrix(0.6935058,0,0,0.2625652,871.4996,-39.28288)" fill="#FFF"/>
  <path id="path43400" opacity="0.85" d="m384.47,126.28c-12.897,0.0303-25.678,0.46471-36.188,1.3125-10.262,0.82785-18.073,1.8948-22.562,3.8438-0.10816,0.047-0.27079,0.077-0.375,0.125v0.0312c-3.5094,1.0378-8.0762,3.3565-13.406,6.4688-5.4984,3.2106-11.669,7.1899-17.5,11.219-5.8314,4.0288-11.315,8.1026-15.531,11.5-2.1079,1.6987-3.9152,3.2285-5.2812,4.5312-1.3661,1.3028-3.1029,3.9871-3.1029,3.9871,3.2142,1.7157,93.992,9.9711,113.01,9.8412,16.67-0.11544,85.243-1.5226,118.55-9.1046,0,0-3.136-6.2566-7.8082-9.7549s-10.463-7.5756-16.469-11.562c-12.011-7.9738-24.563-15.569-31.656-17.75-5.1037-1.7348-13.84-2.7901-24.812-3.5625-10.973-0.77236-23.978-1.1553-36.875-1.125zm0.0312,4.75c12.798-0.0301,25.715,0.36364,36.531,1.125,10.817,0.76136,19.667,1.9771,23.688,3.3438,0.0207,0.0107,0.0415,0.0211,0.0625,0.0312,5.4813,1.6855,18.533,9.2738,30.406,17.156,5.9366,3.9412,11.64,7.9775,16.219,11.406,2.6848,2.0102,5.0846,5.1241,5.9302,6.8788-5.7654,0.91467-11.692,1.9074-18.199,2.6673-8.5633,1-18.151,2.2764-27.794,2.9816-9.6455,0.7054-19.759,1.0754-30.25,1.4467-10.495,0.37143-21.338,0.45772-32.469,0.45772s-22.006-0.61021-32.5-0.98163c-10.491-0.37131-20.709-1.37-30.355-2.0754-9.6435-0.70526-19.126-1.6672-27.689-2.6673-7.522-0.87843-15.843-1.3691-22.373-2.4448,1.1587-1.4862,4.408-4.4702,6.1673-5.8879,4.0843-3.2914,9.5304-7.3081,15.281-11.281,5.7509-3.9732,11.804-7.9062,17.156-11.031,5.352-3.1251,10.1-5.4485,12.656-6.1562,0.12825-0.0312,0.25369-0.073,0.375-0.125,2.7939-1.2874,11.014-2.6979,21.344-3.5312,10.33-0.83334,23.015-1.2824,35.812-1.3125z" fill-rule="evenodd" fill="url(#linearGradient3399)"/>
  <g id="g44784">
   <path id="path43563" opacity="0.85" d="m347.66,177.63s0.0363-4.1306,0.0363-4.1306c0-11.372,17.149-20.597,38.26-20.597s38.233,9.2246,38.233,20.597c0,0,0.0911,4.4587,0.0911,4.4587s-24.957,0.66617-37.878,0.66617c-14.196,0-38.742-0.9942-38.742-0.9942z" fill-rule="evenodd" fill-opacity="0.84967322" fill="#FFF"/>
   <path id="path43565" fill-rule="evenodd" fill="#FFF" d="m389.98,154.67c9.7012,3.7895,11.193,20.828,4.6752,23.405l-44.415-0.36707c-2.6807-10.146,0.4012-12.8,10.109-19.68,1.5127-1.4523,13.017-4.1796,13.017-4.1796s11.837-1.0444,16.615,0.82181z"/>
   <path id="path43567" d="m374.39,153.89,7.9316,3.2155,5.0376,5.0376,5.252,2.1437,3.4962,6.0282s0.97187,3.266,1.4636,3.9307c0.6405,0.86577,1.2074-2.3762,1.2568-3.9566,0.10719-3.6442-1.9293-9.1106-1.9293-9.1106,2.6328,2.2397-2.5279-3.3139-3.8586-5.0376l-6.3238-3.2155-7.1813,0.32156-5.1448,0.6431z" fill-opacity="0.82467532" fill-rule="evenodd" fill="#FFF"/>
   <path id="path43569" d="m355.1,161.43s-4.3385,5.2094-3.2506,7.3656c2.5957,0.0653,7.3725,0.18054,7.3725,0.18054s5.5679-2.4286,5.5679-2.4286,4.7794,1.7259,7.4418,1.7829c4.5861,0.0982,6.5188-0.28816,9.2291-0.22682,1.3671,0.0309,13.238,1.439,14.15,1.4652,1.6254,0.0365-2.5286-2.8126-0.90467-2.7463,0,0-1.8861-2.5175-1.8812-2.4761,0,0-3.652-1.4477-3.652-1.4477l-0.18648,3.164-2.796,1.2193-7.3607-4.0015-4.074-0.65302-1.0434,4.6006-11.04-4.1738-7.5721-1.6243z" fill-rule="evenodd" fill-opacity="0.45454544" filter="url(#filter27806)" fill="#FFF"/>
   <path id="path43571" opacity="0.85" d="m-190.08,3.0284c0,0.62528-0.10768,0.91358-0.11804,1.471-0.0123,0.66472,1.3551,1.9484,1.3309,2.4616-0.0508,1.0781-1.7081,1.3481-1.7898,1.3481s-0.0828-1.7363-0.1336-2.8142c-0.0242-0.51332,0.14643-0.70745,0.13409-1.3723-0.0104-0.55745,0.26143-0.66482,0.26143-1.2901s0.58075-2.0524,0.5911-2.6099c0.0123-0.66472-0.61908-1.1643-0.59489-1.6776,0.0508-1.0781-0.45392-0.42464-0.37221-0.42464,0.0817,0,0.75891,0.71018,0.80973,1.7881,0.0242,0.51332-0.89727,0.89321-0.88492,1.5581,0.0104,0.55745,0.46618,0.67115,0.46618,1.2964,0,0-0.0567,0.085316-0.0567,0.085316" fill-rule="evenodd" fill-opacity="0.6168831" transform="matrix(-1.9734305,1.14743,-1.2311749,-1.8391971,4.62947,390.08139)" filter="url(#filter28813)" fill="#FFF"/>
   <path id="path43573" opacity="0.85" d="m-189.9,2.5574c0,0.62528-0.4667,0.64843-0.47705,1.2059-0.0123,0.66472-0.11289,2.1327-0.13708,2.6459-0.0508,1.0781,2.3472,3.6227,2.2654,3.6227-0.0817,0-2.2571-2.3658-2.3079-3.4437-0.0242-0.51332-0.2316-1.1068-0.24395-1.7717-0.0103-0.55745-0.14878-1.4208-0.14878-2.0461,0-0.62528-0.57272-2.7154-0.56237-3.2728,0.0123-0.66472,0.0184,0.80962,0.0426,0.29638,0.0508-1.0781,1.2412-1.4398,1.3229-1.4398s-0.22629,0.198-0.17548,1.2759c0.0242,0.51332-0.1987,0.56701-0.18636,1.2319,0.0104,0.55745,0.46174,1.7046,0.46174,2.3299,0,0,0.30019,0.40026,0.30019,0.40026" fill-rule="evenodd" fill-opacity="0.6168831" transform="matrix(1.9734305,-1.14743,1.2311749,1.8391971,738.14337,-55.7184)" filter="url(#filter28813)" fill="#FFF"/>
   <g id="g43577" fill-rule="evenodd" transform="matrix(0.7836041,0.01110778,-0.2719951,0.6452221,563.74941,39.508104)" filter="url(#filter36692)" fill="#FFF">
    <path id="path43579" opacity="0.85" stroke-linejoin="round" d="m-189.8,124.54c14.447-6.6566,36.375-7.0004,49.489-0.064,13.225,4.0665-1.4067,42.222,0.87445,46.76,5.0995,16.234-52.985,16.267-49.808,1.1422,2.247-5.3874-13.083-44.37-0.55477-47.839z" stroke-linecap="round" stroke-miterlimit="4" stroke-width="4.75375175"/>
    <path id="path43581" opacity="0.85" fill-opacity="0.6168831" d="m-143.94,137.47c0,4.9835-9.1966,9.0235-20.541,9.0235-11.345,0-20.541-4.04-20.541-9.0235s9.1966-9.0235,20.541-9.0235c11.345,0,20.541,4.04,20.541,9.0235z"/>
    <path id="path43583" opacity="0.85" fill-opacity="0.6168831" d="m-164.34,158.53c-6.6008,0-11.969,3.1437-11.969,7.0312,0,0.69541,0.18071,1.3653,0.5,2,1.4675-2.9116,6.0508-5.0312,11.469-5.0312,5.4168,0,9.969,2.1206,11.438,5.0312,0.31993-0.63525,0.5-1.3039,0.5-2,0-3.8876-5.3367-7.0312-11.938-7.0312z"/>
    <path id="path43585" opacity="0.85" d="m-160.66,169.53c0,1.8638-1.5109,3.3746-3.3746,3.3746-1.8638,0-3.3746-1.5109-3.3746-3.3746,0-1.8638,1.5109-3.3746,3.3746-3.3746,1.8638,0,3.3746,1.5109,3.3746,3.3746z" fill-opacity="0.6168831" transform="matrix(1,0,0,0.6086956,-0.2934468,63.016361)"/>
    <path id="path43587" opacity="0.85" d="m-143.94,137.47c0,4.9835-9.1966,9.0235-20.541,9.0235-11.345,0-20.541-4.04-20.541-9.0235s9.1966-9.0235,20.541-9.0235c11.345,0,20.541,4.04,20.541,9.0235z" fill-opacity="0.71428576" transform="matrix(0.729,0,0,0.729,-44.573243,37.253966)" filter="url(#filter34388)"/>
    <path id="path43589" opacity="0.85" d="m-161.1,166.3c0,1.0534-1.4452,1.9074-3.2279,1.9074s-3.2279-0.85397-3.2279-1.9074,1.4452-1.9074,3.2279-1.9074,3.2279,0.85398,3.2279,1.9074z"/>
    <path id="path43591" opacity="0.85" fill-opacity="0.6168831" d="m-164.34,158.53c-6.6008,0-11.969,3.1437-11.969,7.0312,0,0.69541,0.18071,1.3653,0.5,2,1.4675-2.9116,6.0508-5.0312,11.469-5.0312,5.4168,0,9.969,2.1206,11.438,5.0312,0.31993-0.63525,0.5-1.3039,0.5-2,0-3.8876-5.3367-7.0312-11.938-7.0312z"/>
    <path id="path43593" filter="url(#filter35457)" fill-opacity="0.66883114" d="m-165.58,159.5h-1.7637c-0.60223,0-1.0255,0.0748-1.5562,0.2075-0.73487,0.18371-0.73771,0.82999-1.5562,0.82999-0.16479,0-0.84678,0.68696-1.0375,0.82999-0.37604,0.28203-0.91199,0.18575-1.245,0.51875-0.41935,0.41935-0.87628,0.23464-1.245,0.72624-0.30704,0.40939-0.89253,0.97637-1.0375,1.5562-0.17725,0.70902-0.67247,1.9341-0.31124,1.4525,0.21812-0.29083,1.8944-1.7839,2.2825-2.075,0.35481-0.26611,1.2757-0.52642,1.66-0.62249,0.4917-0.12293,0.97063-0.53719,1.3487-0.72625,0.48862-0.24431,0.77289-0.27103,1.3487-0.41499,0.61036-0.15259,1.0578-0.10375,1.7637-0.10375h1.66c0.49035,0,1.0141-0.10375,1.5562-0.10375,0.71374,0,1.3907-0.17108,2.075,0,0.60612,0.15153,1.2735,0.18869,1.7637,0.31125,0.51493,0.12873,0.86184,0.31124,1.66,0.31124,0.61737,0,1.0089,0.49015,1.3487,0.83,0.31802,0.31802,0.57566,0.44345,0.93374,0.62249,0.56704,0.28352,0.75819,0.13569,1.1412,0.51875,0.31698,0.31698,0.56281,0.45906,0.82999,0.72624,0.29079,0.29078,0.93375,1.7979,0.93375,0.82999,0-0.7336-0.53473-1.9872-1.0375-2.49-0.42058-0.42057-0.64663-0.6201-1.0375-1.1412-0.3301-0.44013-0.99897-0.29198-1.4525-0.51874-0.49904-0.24952-0.92474-0.58981-1.245-0.82999-0.47404-0.35553-0.67136-0.51875-1.3487-0.51875-0.75243,0-0.9617-0.11772-1.5562-0.415-0.56849-0.28424-0.87819-0.41499-1.5562-0.41499h-1.66c-0.5878,0-0.95877,0.10375-1.66,0.10375z"/>
   </g>
   <g id="g43595" fill-rule="evenodd" transform="matrix(0.7938235,0.01125264,-0.301085,0.7142289,566.67905,29.140756)" filter="url(#filter40034)" fill="#FFF">
    <path id="path43597" opacity="0.85" d="m-189.8,124.54c14.447-6.6566,36.375-7.0004,49.489-0.064,13.225,4.0665-1.4067,42.222,0.87445,46.76,5.0995,16.234-52.985,16.267-49.808,1.1422,2.247-5.3874-13.083-44.37-0.55477-47.839z"/>
    <path id="path43599" opacity="0.85" d="m-143.94,137.47c0,4.9835-9.1966,9.0235-20.541,9.0235-11.345,0-20.541-4.04-20.541-9.0235s9.1966-9.0235,20.541-9.0235c11.345,0,20.541,4.04,20.541,9.0235z"/>
    <path id="path43601" opacity="0.85" d="m-164.34,158.53c-6.6008,0-11.969,3.1437-11.969,7.0312,0,0.69541,0.18071,1.3653,0.5,2,1.4675-2.9116,6.0508-5.0312,11.469-5.0312,5.4168,0,9.969,2.1206,11.438,5.0312,0.31993-0.63525,0.5-1.3039,0.5-2,0-3.8876-5.3367-7.0312-11.938-7.0312z"/>
    <path id="path43603" opacity="0.85" d="m-160.66,169.53c0,1.8638-1.5109,3.3746-3.3746,3.3746-1.8638,0-3.3746-1.5109-3.3746-3.3746,0-1.8638,1.5109-3.3746,3.3746-3.3746,1.8638,0,3.3746,1.5109,3.3746,3.3746z" transform="matrix(1,0,0,0.6086956,-0.2934468,63.016361)"/>
    <path id="path43605" opacity="0.85" d="m-143.94,137.47c0,4.9835-9.1966,9.0235-20.541,9.0235-11.345,0-20.541-4.04-20.541-9.0235s9.1966-9.0235,20.541-9.0235c11.345,0,20.541,4.04,20.541,9.0235z" transform="matrix(0.729,0,0,0.729,-44.573243,37.253966)" filter="url(#filter34388)"/>
    <path id="path43607" opacity="0.85" d="m-161.1,166.3c0,1.0534-1.4452,1.9074-3.2279,1.9074s-3.2279-0.85397-3.2279-1.9074,1.4452-1.9074,3.2279-1.9074,3.2279,0.85398,3.2279,1.9074z"/>
    <path id="path43609" opacity="0.85" d="m-164.34,158.53c-6.6008,0-11.969,3.1437-11.969,7.0312,0,0.69541,0.18071,1.3653,0.5,2,1.4675-2.9116,6.0508-5.0312,11.469-5.0312,5.4168,0,9.969,2.1206,11.438,5.0312,0.31993-0.63525,0.5-1.3039,0.5-2,0-3.8876-5.3367-7.0312-11.938-7.0312z"/>
    <path id="path43611" filter="url(#filter35457)" d="m-165.58,159.5h-1.7637c-0.60223,0-1.0255,0.0748-1.5562,0.2075-0.73487,0.18371-0.73771,0.82999-1.5562,0.82999-0.16479,0-0.84678,0.68696-1.0375,0.82999-0.37604,0.28203-0.91199,0.18575-1.245,0.51875-0.41935,0.41935-0.87628,0.23464-1.245,0.72624-0.30704,0.40939-0.89253,0.97637-1.0375,1.5562-0.17725,0.70902-0.67247,1.9341-0.31124,1.4525,0.21812-0.29083,1.8944-1.7839,2.2825-2.075,0.35481-0.26611,1.2757-0.52642,1.66-0.62249,0.4917-0.12293,0.97063-0.53719,1.3487-0.72625,0.48862-0.24431,0.77289-0.27103,1.3487-0.41499,0.61036-0.15259,1.0578-0.10375,1.7637-0.10375h1.66c0.49035,0,1.0141-0.10375,1.5562-0.10375,0.71374,0,1.3907-0.17108,2.075,0,0.60612,0.15153,1.2735,0.18869,1.7637,0.31125,0.51493,0.12873,0.86184,0.31124,1.66,0.31124,0.61737,0,1.0089,0.49015,1.3487,0.83,0.31802,0.31802,0.57566,0.44345,0.93374,0.62249,0.56704,0.28352,0.75819,0.13569,1.1412,0.51875,0.31698,0.31698,0.56281,0.45906,0.82999,0.72624,0.29079,0.29078,0.93375,1.7979,0.93375,0.82999,0-0.7336-0.53473-1.9872-1.0375-2.49-0.42058-0.42057-0.64663-0.6201-1.0375-1.1412-0.3301-0.44013-0.99897-0.29198-1.4525-0.51874-0.49904-0.24952-0.92474-0.58981-1.245-0.82999-0.47404-0.35553-0.67136-0.51875-1.3487-0.51875-0.75243,0-0.9617-0.11772-1.5562-0.415-0.56849-0.28424-0.87819-0.41499-1.5562-0.41499h-1.66c-0.5878,0-0.95877,0.10375-1.66,0.10375z"/>
   </g>
   <g id="g43613" fill-rule="evenodd" fill="#FFF" transform="matrix(0.8320087,0.01179393,-0.301085,0.7142289,573.44207,29.588669)">
    <path id="path43615" opacity="0.85" stroke-linejoin="round" d="m-189.8,124.54c14.447-6.6566,36.375-7.0004,49.489-0.064,13.225,4.0665-1.4067,42.222,0.87445,46.76,5.0995,16.234-52.985,16.267-49.808,1.1422,2.247-5.3874-13.083-44.37-0.55477-47.839z" stroke-linecap="round" stroke-miterlimit="4" stroke-width="4.75375175"/>
    <path id="path43617" opacity="0.85" fill-opacity="0.6168831" d="m-143.94,137.47c0,4.9835-9.1966,9.0235-20.541,9.0235-11.345,0-20.541-4.04-20.541-9.0235s9.1966-9.0235,20.541-9.0235c11.345,0,20.541,4.04,20.541,9.0235z"/>
    <path id="path43619" opacity="0.85" fill-opacity="0.6168831" d="m-164.34,158.53c-6.6008,0-11.969,3.1437-11.969,7.0312,0,0.69541,0.18071,1.3653,0.5,2,1.4675-2.9116,6.0508-5.0312,11.469-5.0312,5.4168,0,9.969,2.1206,11.438,5.0312,0.31993-0.63525,0.5-1.3039,0.5-2,0-3.8876-5.3367-7.0312-11.938-7.0312z"/>
    <path id="path43621" opacity="0.85" d="m-160.66,169.53c0,1.8638-1.5109,3.3746-3.3746,3.3746-1.8638,0-3.3746-1.5109-3.3746-3.3746,0-1.8638,1.5109-3.3746,3.3746-3.3746,1.8638,0,3.3746,1.5109,3.3746,3.3746z" fill-opacity="0.6168831" transform="matrix(1,0,0,0.6086956,-0.2934468,63.016361)"/>
    <path id="path43623" opacity="0.85" d="m-143.94,137.47c0,4.9835-9.1966,9.0235-20.541,9.0235-11.345,0-20.541-4.04-20.541-9.0235s9.1966-9.0235,20.541-9.0235c11.345,0,20.541,4.04,20.541,9.0235z" fill-opacity="0.71428576" transform="matrix(0.729,0,0,0.729,-44.573243,37.253966)" filter="url(#filter34388)"/>
    <path id="path43625" opacity="0.85" d="m-161.1,166.3c0,1.0534-1.4452,1.9074-3.2279,1.9074s-3.2279-0.85397-3.2279-1.9074,1.4452-1.9074,3.2279-1.9074,3.2279,0.85398,3.2279,1.9074z"/>
    <path id="path43627" opacity="0.85" fill-opacity="0.6168831" d="m-164.34,158.53c-6.6008,0-11.969,3.1437-11.969,7.0312,0,0.69541,0.18071,1.3653,0.5,2,1.4675-2.9116,6.0508-5.0312,11.469-5.0312,5.4168,0,9.969,2.1206,11.438,5.0312,0.31993-0.63525,0.5-1.3039,0.5-2,0-3.8876-5.3367-7.0312-11.938-7.0312z"/>
    <path id="path43629" filter="url(#filter35457)" fill-opacity="0.66883114" d="m-165.58,159.5h-1.7637c-0.60223,0-1.0255,0.0748-1.5562,0.2075-0.73487,0.18371-0.73771,0.82999-1.5562,0.82999-0.16479,0-0.84678,0.68696-1.0375,0.82999-0.37604,0.28203-0.91199,0.18575-1.245,0.51875-0.41935,0.41935-0.87628,0.23464-1.245,0.72624-0.30704,0.40939-0.89253,0.97637-1.0375,1.5562-0.17725,0.70902-0.67247,1.9341-0.31124,1.4525,0.21812-0.29083,1.8944-1.7839,2.2825-2.075,0.35481-0.26611,1.2757-0.52642,1.66-0.62249,0.4917-0.12293,0.97063-0.53719,1.3487-0.72625,0.48862-0.24431,0.77289-0.27103,1.3487-0.41499,0.61036-0.15259,1.0578-0.10375,1.7637-0.10375h1.66c0.49035,0,1.0141-0.10375,1.5562-0.10375,0.71374,0,1.3907-0.17108,2.075,0,0.60612,0.15153,1.2735,0.18869,1.7637,0.31125,0.51493,0.12873,0.86184,0.31124,1.66,0.31124,0.61737,0,1.0089,0.49015,1.3487,0.83,0.31802,0.31802,0.57566,0.44345,0.93374,0.62249,0.56704,0.28352,0.75819,0.13569,1.1412,0.51875,0.31698,0.31698,0.56281,0.45906,0.82999,0.72624,0.29079,0.29078,0.93375,1.7979,0.93375,0.82999,0-0.7336-0.53473-1.9872-1.0375-2.49-0.42058-0.42057-0.64663-0.6201-1.0375-1.1412-0.3301-0.44013-0.99897-0.29198-1.4525-0.51874-0.49904-0.24952-0.92474-0.58981-1.245-0.82999-0.47404-0.35553-0.67136-0.51875-1.3487-0.51875-0.75243,0-0.9617-0.11772-1.5562-0.415-0.56849-0.28424-0.87819-0.41499-1.5562-0.41499h-1.66c-0.5878,0-0.95877,0.10375-1.66,0.10375z"/>
   </g>
   <g id="g43631" stroke-linejoin="round" fill-rule="evenodd" transform="matrix(0.8320087,0.01179393,-0.301085,0.7142289,573.44207,29.588669)" stroke-linecap="round" stroke-miterlimit="4" stroke-dasharray="none" fill="#FFF">
    <path id="path43633" opacity="0.85" stroke-width="0.12233213" d="m-189.8,124.54c14.447-6.6566,36.375-7.0004,49.489-0.064,13.225,4.0665-1.4067,42.222,0.87445,46.76,5.0995,16.234-52.985,16.267-49.808,1.1422,2.247-5.3874-13.083-44.37-0.55477-47.839z"/>
    <path id="path43635" opacity="0.85" d="m-143.94,137.47c0,4.9835-9.1966,9.0235-20.541,9.0235-11.345,0-20.541-4.04-20.541-9.0235s9.1966-9.0235,20.541-9.0235c11.345,0,20.541,4.04,20.541,9.0235z" fill-opacity="0.6168831" stroke-width="0.12233213"/>
    <path id="path43637" opacity="0.85" d="m-164.34,158.53c-6.6008,0-11.969,3.1437-11.969,7.0312,0,0.69541,0.18071,1.3653,0.5,2,1.4675-2.9116,6.0508-5.0312,11.469-5.0312,5.4168,0,9.969,2.1206,11.438,5.0312,0.31993-0.63525,0.5-1.3039,0.5-2,0-3.8876-5.3367-7.0312-11.938-7.0312z" fill-opacity="0.6168831" stroke-width="0.12233213"/>
    <path id="path43639" opacity="0.85" d="m-160.66,169.53c0,1.8638-1.5109,3.3746-3.3746,3.3746-1.8638,0-3.3746-1.5109-3.3746-3.3746,0-1.8638,1.5109-3.3746,3.3746-3.3746,1.8638,0,3.3746,1.5109,3.3746,3.3746z" fill-opacity="0.6168831" transform="matrix(1,0,0,0.6086956,-0.2934468,63.016361)" stroke-width="0.15679798"/>
    <path id="path43641" opacity="0.85" d="m-143.94,137.47c0,4.9835-9.1966,9.0235-20.541,9.0235-11.345,0-20.541-4.04-20.541-9.0235s9.1966-9.0235,20.541-9.0235c11.345,0,20.541,4.04,20.541,9.0235z" fill-opacity="0.71428576" transform="matrix(0.729,0,0,0.729,-44.573243,37.253966)" filter="url(#filter34388)" stroke-width="0.16780813"/>
    <path id="path43643" opacity="0.85" stroke-width="0.12233213" d="m-161.1,166.3c0,1.0534-1.4452,1.9074-3.2279,1.9074s-3.2279-0.85397-3.2279-1.9074,1.4452-1.9074,3.2279-1.9074,3.2279,0.85398,3.2279,1.9074z"/>
    <path id="path43645" opacity="0.85" d="m-164.34,158.53c-6.6008,0-11.969,3.1437-11.969,7.0312,0,0.69541,0.18071,1.3653,0.5,2,1.4675-2.9116,6.0508-5.0312,11.469-5.0312,5.4168,0,9.969,2.1206,11.438,5.0312,0.31993-0.63525,0.5-1.3039,0.5-2,0-3.8876-5.3367-7.0312-11.938-7.0312z" fill-opacity="0.6168831" stroke-width="0.12233213"/>
    <path id="path43647" d="m-165.58,159.5h-1.7637c-0.60223,0-1.0255,0.0748-1.5562,0.2075-0.73487,0.18371-0.73771,0.82999-1.5562,0.82999-0.16479,0-0.84678,0.68696-1.0375,0.82999-0.37604,0.28203-0.91199,0.18575-1.245,0.51875-0.41935,0.41935-0.87628,0.23464-1.245,0.72624-0.30704,0.40939-0.89253,0.97637-1.0375,1.5562-0.17725,0.70902-0.67247,1.9341-0.31124,1.4525,0.21812-0.29083,1.8944-1.7839,2.2825-2.075,0.35481-0.26611,1.2757-0.52642,1.66-0.62249,0.4917-0.12293,0.97063-0.53719,1.3487-0.72625,0.48862-0.24431,0.77289-0.27103,1.3487-0.41499,0.61036-0.15259,1.0578-0.10375,1.7637-0.10375h1.66c0.49035,0,1.0141-0.10375,1.5562-0.10375,0.71374,0,1.3907-0.17108,2.075,0,0.60612,0.15153,1.2735,0.18869,1.7637,0.31125,0.51493,0.12873,0.86184,0.31124,1.66,0.31124,0.61737,0,1.0089,0.49015,1.3487,0.83,0.31802,0.31802,0.57566,0.44345,0.93374,0.62249,0.56704,0.28352,0.75819,0.13569,1.1412,0.51875,0.31698,0.31698,0.56281,0.45906,0.82999,0.72624,0.29079,0.29078,0.93375,1.7979,0.93375,0.82999,0-0.7336-0.53473-1.9872-1.0375-2.49-0.42058-0.42057-0.64663-0.6201-1.0375-1.1412-0.3301-0.44013-0.99897-0.29198-1.4525-0.51874-0.49904-0.24952-0.92474-0.58981-1.245-0.82999-0.47404-0.35553-0.67136-0.51875-1.3487-0.51875-0.75243,0-0.9617-0.11772-1.5562-0.415-0.56849-0.28424-0.87819-0.41499-1.5562-0.41499h-1.66c-0.5878,0-0.95877,0.10375-1.66,0.10375z" fill-opacity="0.66883114" filter="url(#filter35457)" stroke-width="0.12233213"/>
   </g>
   <path id="path43649" opacity="0.78142078" d="m-187.53-1.8283c-0.0322-1.2962,0.68027-2.0749-1.0442-2.506-1.7076-0.4269-1.4342,1.8972-2.0883,2.7148-0.69768,0.8721,0.70357,1.1212,1.0442,1.4618,1.2567,1.2567,1.766-1.1334,2.0883-1.6707z" fill-rule="evenodd" fill-opacity="0.99215686" transform="matrix(1,0,0,0.9255754,558,159.0151)" filter="url(#filter43185)" fill="#FFF"/>
   <path id="path43402" opacity="0.85" d="m347.66,177.63s0.0363-4.1306,0.0363-4.1306c0-11.372,17.149-20.597,38.26-20.597s38.233,9.2246,38.233,20.597c0,0,0.0911,4.4587,0.0911,4.4587s-24.957,0.66617-37.878,0.66617c-14.196,0-38.742-0.9942-38.742-0.9942z" fill-rule="evenodd" fill-opacity="0.84967322" fill="#000"/>
   <path id="path43404" fill-rule="evenodd" fill="url(#linearGradient3401)" d="m389.98,154.67c9.7012,3.7895,11.193,20.828,4.6752,23.405l-44.415-0.36707c-2.6807-10.146,0.4012-12.8,10.109-19.68,1.5127-1.4523,13.017-4.1796,13.017-4.1796s11.837-1.0444,16.615,0.82181z"/>
   <path id="path43406" d="m374.39,153.89,7.9316,3.2155,5.0376,5.0376,5.252,2.1437,3.4962,6.0282s0.97187,3.266,1.4636,3.9307c0.6405,0.86577,1.2074-2.3762,1.2568-3.9566,0.10719-3.6442-1.9293-9.1106-1.9293-9.1106,2.6328,2.2397-2.5279-3.3139-3.8586-5.0376l-6.3238-3.2155-7.1813,0.32156-5.1448,0.6431z" fill-opacity="0.82467532" fill-rule="evenodd" fill="#000"/>
   <path id="path43408" d="m355.1,161.43s-4.3385,5.2094-3.2506,7.3656c2.5957,0.0653,7.3725,0.18054,7.3725,0.18054s5.5679-2.4286,5.5679-2.4286,4.7794,1.7259,7.4418,1.7829c4.5861,0.0982,6.5188-0.28816,9.2291-0.22682,1.3671,0.0309,13.238,1.439,14.15,1.4652,1.6254,0.0365-2.5286-2.8126-0.90467-2.7463,0,0-1.8861-2.5175-1.8812-2.4761,0,0-3.652-1.4477-3.652-1.4477l-0.18648,3.164-2.796,1.2193-7.3607-4.0015-4.074-0.65302-1.0434,4.6006-11.04-4.1738-7.5721-1.6243z" fill-rule="evenodd" fill-opacity="0.45454544" filter="url(#filter27806)" fill="#000"/>
   <path id="path43410" opacity="0.85" d="m-190.08,3.0284c0,0.62528-0.10768,0.91358-0.11804,1.471-0.0123,0.66472,1.3551,1.9484,1.3309,2.4616-0.0508,1.0781-1.7081,1.3481-1.7898,1.3481s-0.0828-1.7363-0.1336-2.8142c-0.0242-0.51332,0.14643-0.70745,0.13409-1.3723-0.0104-0.55745,0.26143-0.66482,0.26143-1.2901s0.58075-2.0524,0.5911-2.6099c0.0123-0.66472-0.61908-1.1643-0.59489-1.6776,0.0508-1.0781-0.45392-0.42464-0.37221-0.42464,0.0817,0,0.75891,0.71018,0.80973,1.7881,0.0242,0.51332-0.89727,0.89321-0.88492,1.5581,0.0104,0.55745,0.46618,0.67115,0.46618,1.2964,0,0-0.0567,0.085316-0.0567,0.085316" fill-rule="evenodd" fill-opacity="0.6168831" transform="matrix(-1.9734305,1.14743,-1.2311749,-1.8391971,4.62947,390.08139)" filter="url(#filter28813)" fill="#FFF"/>
   <path id="path43412" opacity="0.85" d="m-189.9,2.5574c0,0.62528-0.4667,0.64843-0.47705,1.2059-0.0123,0.66472-0.11289,2.1327-0.13708,2.6459-0.0508,1.0781,2.3472,3.6227,2.2654,3.6227-0.0817,0-2.2571-2.3658-2.3079-3.4437-0.0242-0.51332-0.2316-1.1068-0.24395-1.7717-0.0103-0.55745-0.14878-1.4208-0.14878-2.0461,0-0.62528-0.57272-2.7154-0.56237-3.2728,0.0123-0.66472,0.0184,0.80962,0.0426,0.29638,0.0508-1.0781,1.2412-1.4398,1.3229-1.4398s-0.22629,0.198-0.17548,1.2759c0.0242,0.51332-0.1987,0.56701-0.18636,1.2319,0.0104,0.55745,0.46174,1.7046,0.46174,2.3299,0,0,0.30019,0.40026,0.30019,0.40026" fill-rule="evenodd" fill-opacity="0.6168831" transform="matrix(1.9734305,-1.14743,1.2311749,1.8391971,738.14337,-55.7184)" filter="url(#filter28813)" fill="#FFF"/>
   <g id="g43416" fill-rule="evenodd" transform="matrix(0.7836041,0.01110778,-0.2719951,0.6452221,563.74941,39.508104)" filter="url(#filter36692)" fill="#000">
    <path id="path43418" opacity="0.85" stroke-linejoin="round" d="m-189.8,124.54c14.447-6.6566,36.375-7.0004,49.489-0.064,13.225,4.0665-1.4067,42.222,0.87445,46.76,5.0995,16.234-52.985,16.267-49.808,1.1422,2.247-5.3874-13.083-44.37-0.55477-47.839z" stroke-linecap="round" stroke-miterlimit="4" stroke-width="4.75375175"/>
    <path id="path43420" opacity="0.85" fill-opacity="0.6168831" d="m-143.94,137.47c0,4.9835-9.1966,9.0235-20.541,9.0235-11.345,0-20.541-4.04-20.541-9.0235s9.1966-9.0235,20.541-9.0235c11.345,0,20.541,4.04,20.541,9.0235z"/>
    <path id="path43422" opacity="0.85" fill-opacity="0.6168831" d="m-164.34,158.53c-6.6008,0-11.969,3.1437-11.969,7.0312,0,0.69541,0.18071,1.3653,0.5,2,1.4675-2.9116,6.0508-5.0312,11.469-5.0312,5.4168,0,9.969,2.1206,11.438,5.0312,0.31993-0.63525,0.5-1.3039,0.5-2,0-3.8876-5.3367-7.0312-11.938-7.0312z"/>
    <path id="path43424" opacity="0.85" d="m-160.66,169.53c0,1.8638-1.5109,3.3746-3.3746,3.3746-1.8638,0-3.3746-1.5109-3.3746-3.3746,0-1.8638,1.5109-3.3746,3.3746-3.3746,1.8638,0,3.3746,1.5109,3.3746,3.3746z" fill-opacity="0.6168831" transform="matrix(1,0,0,0.6086956,-0.2934468,63.016361)"/>
    <path id="path43426" opacity="0.85" d="m-143.94,137.47c0,4.9835-9.1966,9.0235-20.541,9.0235-11.345,0-20.541-4.04-20.541-9.0235s9.1966-9.0235,20.541-9.0235c11.345,0,20.541,4.04,20.541,9.0235z" fill-opacity="0.71428576" transform="matrix(0.729,0,0,0.729,-44.573243,37.253966)" filter="url(#filter34388)"/>
    <path id="path43428" opacity="0.85" d="m-161.1,166.3c0,1.0534-1.4452,1.9074-3.2279,1.9074s-3.2279-0.85397-3.2279-1.9074,1.4452-1.9074,3.2279-1.9074,3.2279,0.85398,3.2279,1.9074z"/>
    <path id="path43430" opacity="0.85" fill-opacity="0.6168831" d="m-164.34,158.53c-6.6008,0-11.969,3.1437-11.969,7.0312,0,0.69541,0.18071,1.3653,0.5,2,1.4675-2.9116,6.0508-5.0312,11.469-5.0312,5.4168,0,9.969,2.1206,11.438,5.0312,0.31993-0.63525,0.5-1.3039,0.5-2,0-3.8876-5.3367-7.0312-11.938-7.0312z"/>
    <path id="path43432" filter="url(#filter35457)" fill-opacity="0.66883114" d="m-165.58,159.5h-1.7637c-0.60223,0-1.0255,0.0748-1.5562,0.2075-0.73487,0.18371-0.73771,0.82999-1.5562,0.82999-0.16479,0-0.84678,0.68696-1.0375,0.82999-0.37604,0.28203-0.91199,0.18575-1.245,0.51875-0.41935,0.41935-0.87628,0.23464-1.245,0.72624-0.30704,0.40939-0.89253,0.97637-1.0375,1.5562-0.17725,0.70902-0.67247,1.9341-0.31124,1.4525,0.21812-0.29083,1.8944-1.7839,2.2825-2.075,0.35481-0.26611,1.2757-0.52642,1.66-0.62249,0.4917-0.12293,0.97063-0.53719,1.3487-0.72625,0.48862-0.24431,0.77289-0.27103,1.3487-0.41499,0.61036-0.15259,1.0578-0.10375,1.7637-0.10375h1.66c0.49035,0,1.0141-0.10375,1.5562-0.10375,0.71374,0,1.3907-0.17108,2.075,0,0.60612,0.15153,1.2735,0.18869,1.7637,0.31125,0.51493,0.12873,0.86184,0.31124,1.66,0.31124,0.61737,0,1.0089,0.49015,1.3487,0.83,0.31802,0.31802,0.57566,0.44345,0.93374,0.62249,0.56704,0.28352,0.75819,0.13569,1.1412,0.51875,0.31698,0.31698,0.56281,0.45906,0.82999,0.72624,0.29079,0.29078,0.93375,1.7979,0.93375,0.82999,0-0.7336-0.53473-1.9872-1.0375-2.49-0.42058-0.42057-0.64663-0.6201-1.0375-1.1412-0.3301-0.44013-0.99897-0.29198-1.4525-0.51874-0.49904-0.24952-0.92474-0.58981-1.245-0.82999-0.47404-0.35553-0.67136-0.51875-1.3487-0.51875-0.75243,0-0.9617-0.11772-1.5562-0.415-0.56849-0.28424-0.87819-0.41499-1.5562-0.41499h-1.66c-0.5878,0-0.95877,0.10375-1.66,0.10375z"/>
   </g>
   <g id="g43434" fill-rule="evenodd" transform="matrix(0.7938235,0.01125264,-0.301085,0.7142289,566.67905,29.140756)" filter="url(#filter40034)" fill="#FFF">
    <path id="path43436" opacity="0.85" d="m-189.8,124.54c14.447-6.6566,36.375-7.0004,49.489-0.064,13.225,4.0665-1.4067,42.222,0.87445,46.76,5.0995,16.234-52.985,16.267-49.808,1.1422,2.247-5.3874-13.083-44.37-0.55477-47.839z"/>
    <path id="path43438" opacity="0.85" d="m-143.94,137.47c0,4.9835-9.1966,9.0235-20.541,9.0235-11.345,0-20.541-4.04-20.541-9.0235s9.1966-9.0235,20.541-9.0235c11.345,0,20.541,4.04,20.541,9.0235z"/>
    <path id="path43440" opacity="0.85" d="m-164.34,158.53c-6.6008,0-11.969,3.1437-11.969,7.0312,0,0.69541,0.18071,1.3653,0.5,2,1.4675-2.9116,6.0508-5.0312,11.469-5.0312,5.4168,0,9.969,2.1206,11.438,5.0312,0.31993-0.63525,0.5-1.3039,0.5-2,0-3.8876-5.3367-7.0312-11.938-7.0312z"/>
    <path id="path43442" opacity="0.85" d="m-160.66,169.53c0,1.8638-1.5109,3.3746-3.3746,3.3746-1.8638,0-3.3746-1.5109-3.3746-3.3746,0-1.8638,1.5109-3.3746,3.3746-3.3746,1.8638,0,3.3746,1.5109,3.3746,3.3746z" transform="matrix(1,0,0,0.6086956,-0.2934468,63.016361)"/>
    <path id="path43444" opacity="0.85" d="m-143.94,137.47c0,4.9835-9.1966,9.0235-20.541,9.0235-11.345,0-20.541-4.04-20.541-9.0235s9.1966-9.0235,20.541-9.0235c11.345,0,20.541,4.04,20.541,9.0235z" transform="matrix(0.729,0,0,0.729,-44.573243,37.253966)" filter="url(#filter34388)"/>
    <path id="path43446" opacity="0.85" d="m-161.1,166.3c0,1.0534-1.4452,1.9074-3.2279,1.9074s-3.2279-0.85397-3.2279-1.9074,1.4452-1.9074,3.2279-1.9074,3.2279,0.85398,3.2279,1.9074z"/>
    <path id="path43448" opacity="0.85" d="m-164.34,158.53c-6.6008,0-11.969,3.1437-11.969,7.0312,0,0.69541,0.18071,1.3653,0.5,2,1.4675-2.9116,6.0508-5.0312,11.469-5.0312,5.4168,0,9.969,2.1206,11.438,5.0312,0.31993-0.63525,0.5-1.3039,0.5-2,0-3.8876-5.3367-7.0312-11.938-7.0312z"/>
    <path id="path43450" filter="url(#filter35457)" d="m-165.58,159.5h-1.7637c-0.60223,0-1.0255,0.0748-1.5562,0.2075-0.73487,0.18371-0.73771,0.82999-1.5562,0.82999-0.16479,0-0.84678,0.68696-1.0375,0.82999-0.37604,0.28203-0.91199,0.18575-1.245,0.51875-0.41935,0.41935-0.87628,0.23464-1.245,0.72624-0.30704,0.40939-0.89253,0.97637-1.0375,1.5562-0.17725,0.70902-0.67247,1.9341-0.31124,1.4525,0.21812-0.29083,1.8944-1.7839,2.2825-2.075,0.35481-0.26611,1.2757-0.52642,1.66-0.62249,0.4917-0.12293,0.97063-0.53719,1.3487-0.72625,0.48862-0.24431,0.77289-0.27103,1.3487-0.41499,0.61036-0.15259,1.0578-0.10375,1.7637-0.10375h1.66c0.49035,0,1.0141-0.10375,1.5562-0.10375,0.71374,0,1.3907-0.17108,2.075,0,0.60612,0.15153,1.2735,0.18869,1.7637,0.31125,0.51493,0.12873,0.86184,0.31124,1.66,0.31124,0.61737,0,1.0089,0.49015,1.3487,0.83,0.31802,0.31802,0.57566,0.44345,0.93374,0.62249,0.56704,0.28352,0.75819,0.13569,1.1412,0.51875,0.31698,0.31698,0.56281,0.45906,0.82999,0.72624,0.29079,0.29078,0.93375,1.7979,0.93375,0.82999,0-0.7336-0.53473-1.9872-1.0375-2.49-0.42058-0.42057-0.64663-0.6201-1.0375-1.1412-0.3301-0.44013-0.99897-0.29198-1.4525-0.51874-0.49904-0.24952-0.92474-0.58981-1.245-0.82999-0.47404-0.35553-0.67136-0.51875-1.3487-0.51875-0.75243,0-0.9617-0.11772-1.5562-0.415-0.56849-0.28424-0.87819-0.41499-1.5562-0.41499h-1.66c-0.5878,0-0.95877,0.10375-1.66,0.10375z"/>
   </g>
   <g id="g43452" fill-rule="evenodd" transform="matrix(0.8320087,0.01179393,-0.301085,0.7142289,573.44207,29.588669)">
    <path id="path43454" opacity="0.85" stroke-linejoin="round" d="m-189.8,124.54c14.447-6.6566,36.375-7.0004,49.489-0.064,13.225,4.0665-1.4067,42.222,0.87445,46.76,5.0995,16.234-52.985,16.267-49.808,1.1422,2.247-5.3874-13.083-44.37-0.55477-47.839z" stroke-linecap="round" stroke-miterlimit="4" stroke-width="4.75375175" fill="url(#linearGradient3403)"/>
    <path id="path43456" opacity="0.85" d="m-143.94,137.47c0,4.9835-9.1966,9.0235-20.541,9.0235-11.345,0-20.541-4.04-20.541-9.0235s9.1966-9.0235,20.541-9.0235c11.345,0,20.541,4.04,20.541,9.0235z" fill-opacity="0.6168831" fill="#FFF"/>
    <path id="path43458" opacity="0.85" d="m-164.34,158.53c-6.6008,0-11.969,3.1437-11.969,7.0312,0,0.69541,0.18071,1.3653,0.5,2,1.4675-2.9116,6.0508-5.0312,11.469-5.0312,5.4168,0,9.969,2.1206,11.438,5.0312,0.31993-0.63525,0.5-1.3039,0.5-2,0-3.8876-5.3367-7.0312-11.938-7.0312z" fill-opacity="0.6168831" fill="#FFF"/>
    <path id="path43460" opacity="0.85" d="m-160.66,169.53c0,1.8638-1.5109,3.3746-3.3746,3.3746-1.8638,0-3.3746-1.5109-3.3746-3.3746,0-1.8638,1.5109-3.3746,3.3746-3.3746,1.8638,0,3.3746,1.5109,3.3746,3.3746z" fill-opacity="0.6168831" transform="matrix(1,0,0,0.6086956,-0.2934468,63.016361)" fill="#FFF"/>
    <path id="path43462" opacity="0.85" d="m-143.94,137.47c0,4.9835-9.1966,9.0235-20.541,9.0235-11.345,0-20.541-4.04-20.541-9.0235s9.1966-9.0235,20.541-9.0235c11.345,0,20.541,4.04,20.541,9.0235z" fill-opacity="0.71428576" transform="matrix(0.729,0,0,0.729,-44.573243,37.253966)" filter="url(#filter34388)" fill="#000"/>
    <path id="path43464" opacity="0.85" fill="url(#radialGradient3405)" d="m-161.1,166.3c0,1.0534-1.4452,1.9074-3.2279,1.9074s-3.2279-0.85397-3.2279-1.9074,1.4452-1.9074,3.2279-1.9074,3.2279,0.85398,3.2279,1.9074z"/>
    <path id="path43466" opacity="0.85" d="m-164.34,158.53c-6.6008,0-11.969,3.1437-11.969,7.0312,0,0.69541,0.18071,1.3653,0.5,2,1.4675-2.9116,6.0508-5.0312,11.469-5.0312,5.4168,0,9.969,2.1206,11.438,5.0312,0.31993-0.63525,0.5-1.3039,0.5-2,0-3.8876-5.3367-7.0312-11.938-7.0312z" fill-opacity="0.6168831" fill="#FFF"/>
    <path id="path43468" d="m-165.58,159.5h-1.7637c-0.60223,0-1.0255,0.0748-1.5562,0.2075-0.73487,0.18371-0.73771,0.82999-1.5562,0.82999-0.16479,0-0.84678,0.68696-1.0375,0.82999-0.37604,0.28203-0.91199,0.18575-1.245,0.51875-0.41935,0.41935-0.87628,0.23464-1.245,0.72624-0.30704,0.40939-0.89253,0.97637-1.0375,1.5562-0.17725,0.70902-0.67247,1.9341-0.31124,1.4525,0.21812-0.29083,1.8944-1.7839,2.2825-2.075,0.35481-0.26611,1.2757-0.52642,1.66-0.62249,0.4917-0.12293,0.97063-0.53719,1.3487-0.72625,0.48862-0.24431,0.77289-0.27103,1.3487-0.41499,0.61036-0.15259,1.0578-0.10375,1.7637-0.10375h1.66c0.49035,0,1.0141-0.10375,1.5562-0.10375,0.71374,0,1.3907-0.17108,2.075,0,0.60612,0.15153,1.2735,0.18869,1.7637,0.31125,0.51493,0.12873,0.86184,0.31124,1.66,0.31124,0.61737,0,1.0089,0.49015,1.3487,0.83,0.31802,0.31802,0.57566,0.44345,0.93374,0.62249,0.56704,0.28352,0.75819,0.13569,1.1412,0.51875,0.31698,0.31698,0.56281,0.45906,0.82999,0.72624,0.29079,0.29078,0.93375,1.7979,0.93375,0.82999,0-0.7336-0.53473-1.9872-1.0375-2.49-0.42058-0.42057-0.64663-0.6201-1.0375-1.1412-0.3301-0.44013-0.99897-0.29198-1.4525-0.51874-0.49904-0.24952-0.92474-0.58981-1.245-0.82999-0.47404-0.35553-0.67136-0.51875-1.3487-0.51875-0.75243,0-0.9617-0.11772-1.5562-0.415-0.56849-0.28424-0.87819-0.41499-1.5562-0.41499h-1.66c-0.5878,0-0.95877,0.10375-1.66,0.10375z" fill-opacity="0.66883114" filter="url(#filter35457)" fill="#000"/>
   </g>
   <g id="g43470" stroke-linejoin="round" transform="matrix(0.8320087,0.01179393,-0.301085,0.7142289,573.44207,29.588669)" stroke-linecap="round" stroke-dasharray="none" stroke-miterlimit="4" fill="none">
    <path id="path43472" opacity="0.85" stroke-width="0.12233213" d="m-189.8,124.54c14.447-6.6566,36.375-7.0004,49.489-0.064,13.225,4.0665-1.4067,42.222,0.87445,46.76,5.0995,16.234-52.985,16.267-49.808,1.1422,2.247-5.3874-13.083-44.37-0.55477-47.839z"/>
    <path id="path43474" opacity="0.85" stroke-width="0.12233213" d="m-143.94,137.47c0,4.9835-9.1966,9.0235-20.541,9.0235-11.345,0-20.541-4.04-20.541-9.0235s9.1966-9.0235,20.541-9.0235c11.345,0,20.541,4.04,20.541,9.0235z"/>
    <path id="path43476" opacity="0.85" stroke-width="0.12233213" d="m-164.34,158.53c-6.6008,0-11.969,3.1437-11.969,7.0312,0,0.69541,0.18071,1.3653,0.5,2,1.4675-2.9116,6.0508-5.0312,11.469-5.0312,5.4168,0,9.969,2.1206,11.438,5.0312,0.31993-0.63525,0.5-1.3039,0.5-2,0-3.8876-5.3367-7.0312-11.938-7.0312z"/>
    <path id="path43478" opacity="0.85" d="m-160.66,169.53c0,1.8638-1.5109,3.3746-3.3746,3.3746-1.8638,0-3.3746-1.5109-3.3746-3.3746,0-1.8638,1.5109-3.3746,3.3746-3.3746,1.8638,0,3.3746,1.5109,3.3746,3.3746z" transform="matrix(1,0,0,0.6086956,-0.2934468,63.016361)" stroke-width="0.15679798"/>
    <path id="path43480" opacity="0.85" d="m-143.94,137.47c0,4.9835-9.1966,9.0235-20.541,9.0235-11.345,0-20.541-4.04-20.541-9.0235s9.1966-9.0235,20.541-9.0235c11.345,0,20.541,4.04,20.541,9.0235z" transform="matrix(0.729,0,0,0.729,-44.573243,37.253966)" filter="url(#filter34388)" stroke-width="0.16780813"/>
    <path id="path43482" opacity="0.85" stroke-width="0.12233213" d="m-161.1,166.3c0,1.0534-1.4452,1.9074-3.2279,1.9074s-3.2279-0.85397-3.2279-1.9074,1.4452-1.9074,3.2279-1.9074,3.2279,0.85398,3.2279,1.9074z"/>
    <path id="path43484" opacity="0.85" stroke-width="0.12233213" d="m-164.34,158.53c-6.6008,0-11.969,3.1437-11.969,7.0312,0,0.69541,0.18071,1.3653,0.5,2,1.4675-2.9116,6.0508-5.0312,11.469-5.0312,5.4168,0,9.969,2.1206,11.438,5.0312,0.31993-0.63525,0.5-1.3039,0.5-2,0-3.8876-5.3367-7.0312-11.938-7.0312z"/>
    <path id="path43486" filter="url(#filter35457)" stroke-width="0.12233213" d="m-165.58,159.5h-1.7637c-0.60223,0-1.0255,0.0748-1.5562,0.2075-0.73487,0.18371-0.73771,0.82999-1.5562,0.82999-0.16479,0-0.84678,0.68696-1.0375,0.82999-0.37604,0.28203-0.91199,0.18575-1.245,0.51875-0.41935,0.41935-0.87628,0.23464-1.245,0.72624-0.30704,0.40939-0.89253,0.97637-1.0375,1.5562-0.17725,0.70902-0.67247,1.9341-0.31124,1.4525,0.21812-0.29083,1.8944-1.7839,2.2825-2.075,0.35481-0.26611,1.2757-0.52642,1.66-0.62249,0.4917-0.12293,0.97063-0.53719,1.3487-0.72625,0.48862-0.24431,0.77289-0.27103,1.3487-0.41499,0.61036-0.15259,1.0578-0.10375,1.7637-0.10375h1.66c0.49035,0,1.0141-0.10375,1.5562-0.10375,0.71374,0,1.3907-0.17108,2.075,0,0.60612,0.15153,1.2735,0.18869,1.7637,0.31125,0.51493,0.12873,0.86184,0.31124,1.66,0.31124,0.61737,0,1.0089,0.49015,1.3487,0.83,0.31802,0.31802,0.57566,0.44345,0.93374,0.62249,0.56704,0.28352,0.75819,0.13569,1.1412,0.51875,0.31698,0.31698,0.56281,0.45906,0.82999,0.72624,0.29079,0.29078,0.93375,1.7979,0.93375,0.82999,0-0.7336-0.53473-1.9872-1.0375-2.49-0.42058-0.42057-0.64663-0.6201-1.0375-1.1412-0.3301-0.44013-0.99897-0.29198-1.4525-0.51874-0.49904-0.24952-0.92474-0.58981-1.245-0.82999-0.47404-0.35553-0.67136-0.51875-1.3487-0.51875-0.75243,0-0.9617-0.11772-1.5562-0.415-0.56849-0.28424-0.87819-0.41499-1.5562-0.41499h-1.66c-0.5878,0-0.95877,0.10375-1.66,0.10375z"/>
   </g>
   <path id="path43488" opacity="0.78142078" d="m-187.53-1.8283c-0.0322-1.2962,0.68027-2.0749-1.0442-2.506-1.7076-0.4269-1.4342,1.8972-2.0883,2.7148-0.69768,0.8721,0.70357,1.1212,1.0442,1.4618,1.2567,1.2567,1.766-1.1334,2.0883-1.6707z" fill-rule="evenodd" fill-opacity="0.99215686" transform="matrix(1,0,0,0.9255754,558,159.0151)" filter="url(#filter43185)" fill="#000"/>
  </g>
 </g>
</svg>
